<svg width="69" height="18" viewBox="0 0 69 18" fill="none" xmlns="http://www.w3.org/2000/svg">
<path d="M13.2611 1.7143C12.4733 0.816421 11.0493 0.431477 9.22764 0.431477H3.94057C3.76024 0.431381 3.58579 0.49565 3.44862 0.612717C3.31146 0.729783 3.22057 0.891961 3.19233 1.07007L0.991854 15.0329C0.98165 15.0977 0.985611 15.1639 1.00346 15.227C1.02131 15.2901 1.05263 15.3486 1.09526 15.3984C1.13788 15.4482 1.19081 15.4882 1.25038 15.5156C1.30995 15.543 1.37475 15.5572 1.44033 15.5572H4.70433L5.5241 10.3576L5.49869 10.5204C5.52639 10.3427 5.61667 10.1807 5.75325 10.0636C5.88983 9.94651 6.06374 9.88206 6.24363 9.88185H7.79469C10.8418 9.88185 13.2276 8.6442 13.9246 5.06396C13.9453 4.95808 13.9632 4.85502 13.9787 4.75431C14.1858 3.43101 13.9773 2.53031 13.2615 1.71478" fill="#003087"/>
<path d="M53.2211 8.35855C53.0216 9.66867 52.0211 9.66867 51.0536 9.66867H50.503L50.8894 7.22255C50.9129 7.07478 51.0399 6.96608 51.1896 6.96608H51.4423C52.1011 6.96608 52.7232 6.96608 53.0442 7.34114C53.2357 7.56561 53.2936 7.89879 53.2211 8.35855ZM52.7999 4.94019H49.1501C49.0292 4.94025 48.9123 4.9834 48.8203 5.06188C48.7284 5.14037 48.6674 5.24905 48.6484 5.36843L47.1736 14.727C47.1668 14.7704 47.1695 14.8148 47.1814 14.857C47.1934 14.8993 47.2144 14.9384 47.2429 14.9718C47.2714 15.0052 47.3068 15.0321 47.3467 15.0505C47.3865 15.0689 47.4299 15.0785 47.4738 15.0786H49.3468C49.5214 15.0786 49.6701 14.9515 49.6974 14.7793L50.1162 12.1251C50.1548 11.879 50.3675 11.6969 50.6169 11.6969H51.7717C54.1764 11.6969 55.5637 10.5341 55.9261 8.22773C56.0894 7.21973 55.9327 6.42725 55.4607 5.87243C54.9416 5.26254 54.0216 4.93972 52.8004 4.93972" fill="#009CDE"/>
<path d="M27.188 8.35855C26.9885 9.66868 25.988 9.66868 25.02 9.66868H24.4694L24.8558 7.22255C24.8793 7.07479 25.0063 6.96608 25.156 6.96608H25.4087C26.0675 6.96608 26.6896 6.96608 27.0106 7.34114C27.2026 7.56561 27.2605 7.89879 27.188 8.35855ZM26.7668 4.94019H23.1169C22.8675 4.94019 22.6548 5.12184 22.6158 5.36843L21.1405 14.727C21.1336 14.7704 21.1362 14.8148 21.1481 14.8571C21.1601 14.8994 21.181 14.9386 21.2096 14.972C21.2381 15.0054 21.2735 15.0322 21.3134 15.0506C21.3533 15.069 21.3968 15.0786 21.4407 15.0786H23.1838C23.4332 15.0786 23.6454 14.8969 23.6845 14.6503L24.0831 12.1256C24.1216 11.879 24.3343 11.6974 24.5838 11.6974H25.7386C28.1433 11.6974 29.5306 10.5341 29.893 8.22773C30.0562 7.21973 29.8995 6.42726 29.4275 5.87243C28.9085 5.26255 27.9885 4.93972 26.7673 4.93972M35.2407 11.7186C35.0713 12.7172 34.2793 13.3877 33.268 13.3877C32.7612 13.3877 32.3551 13.2244 32.0944 12.9157C31.8355 12.6099 31.7386 12.1736 31.8205 11.6884C31.9777 10.6983 32.7833 10.0066 33.7791 10.0066C34.2755 10.0066 34.6779 10.1713 34.9443 10.4828C35.212 10.7967 35.3174 11.2353 35.2407 11.7186ZM37.6765 8.3162H35.9287C35.8561 8.31612 35.7858 8.34201 35.7305 8.38922C35.6753 8.43643 35.6388 8.50183 35.6276 8.57361L35.5513 9.06209L35.429 8.88514C35.0506 8.33597 34.2068 8.15197 33.3645 8.15197C31.4337 8.15197 29.7842 9.6155 29.4633 11.6673C29.2962 12.6917 29.5334 13.6701 30.1141 14.3529C30.6473 14.9802 31.4082 15.2414 32.3151 15.2414C33.8718 15.2414 34.7348 14.2419 34.7348 14.2419L34.6567 14.7275C34.6499 14.7709 34.6525 14.8154 34.6644 14.8577C34.6764 14.9 34.6974 14.9392 34.726 14.9727C34.7546 15.0061 34.7901 15.0329 34.83 15.0513C34.87 15.0696 34.9135 15.0791 34.9574 15.079H36.5311C36.7805 15.079 36.9932 14.8979 37.0323 14.6508L37.9772 8.6682C37.984 8.62474 37.9813 8.58031 37.9693 8.53799C37.9573 8.49567 37.9362 8.45646 37.9076 8.42305C37.879 8.38964 37.8435 8.36283 37.8035 8.34447C37.7635 8.3261 37.72 8.31662 37.676 8.31667" fill="#003087"/>
<path d="M61.2731 11.7186C61.1036 12.7172 60.3116 13.3877 59.3004 13.3877C58.7935 13.3877 58.3874 13.2244 58.1267 12.9157C57.8679 12.6099 57.7709 12.1736 57.8528 11.6884C58.01 10.6983 58.8152 10.0066 59.8114 10.0066C60.3079 10.0066 60.7102 10.1713 60.9766 10.4828C61.2444 10.7967 61.3498 11.2353 61.2731 11.7186ZM63.7088 8.3162H61.9611C61.8884 8.31612 61.8181 8.34201 61.7629 8.38922C61.7076 8.43643 61.6711 8.50183 61.6599 8.57361L61.5836 9.06209L61.4613 8.88514C61.0829 8.33597 60.2392 8.15197 59.3968 8.15197C57.4665 8.15197 55.817 9.6155 55.4956 11.6673C55.3286 12.6917 55.5662 13.6701 56.1469 14.3529C56.6801 14.9802 57.4411 15.2414 58.3479 15.2414C59.9051 15.2414 60.7681 14.2419 60.7681 14.2419L60.69 14.7275C60.683 14.7709 60.6855 14.8153 60.6973 14.8576C60.7091 14.8999 60.73 14.9392 60.7586 14.9726C60.7871 15.0061 60.8225 15.0329 60.8624 15.0513C60.9024 15.0697 60.9458 15.0791 60.9898 15.079H62.5629C62.8124 15.079 63.0251 14.8979 63.0646 14.6508L64.0095 8.6682C64.0163 8.62474 64.0136 8.58031 64.0016 8.53799C63.9896 8.49567 63.9686 8.45646 63.9399 8.42305C63.9113 8.38964 63.8758 8.36283 63.8358 8.34447C63.7958 8.3261 63.7524 8.31662 63.7084 8.31667" fill="#009CDE"/>
<path d="M46.9837 8.31668H45.2265C45.0585 8.31668 44.9018 8.39997 44.8077 8.53927L42.3842 12.1082L41.3569 8.67856C41.3255 8.57395 41.2613 8.48222 41.1738 8.41696C41.0862 8.35169 40.98 8.31637 40.8708 8.31621H39.1442C39.0957 8.31623 39.048 8.3278 39.005 8.34996C38.9619 8.37211 38.9248 8.40421 38.8966 8.4436C38.8685 8.48298 38.8501 8.52852 38.8431 8.57642C38.836 8.62432 38.8405 8.67321 38.8562 8.71903L40.7903 14.3972L38.971 16.9642C38.9388 17.0098 38.9198 17.0633 38.916 17.119C38.9122 17.1746 38.9237 17.2302 38.9494 17.2797C38.975 17.3293 39.0138 17.3708 39.0614 17.3998C39.109 17.4288 39.1637 17.4442 39.2195 17.4442H40.9748C41.1404 17.4442 41.2962 17.3628 41.3912 17.2263L47.2331 8.79433C47.2648 8.74875 47.2835 8.69535 47.287 8.63993C47.2905 8.58451 47.2788 8.52919 47.2531 8.47997C47.2274 8.43074 47.1887 8.3895 47.1412 8.36071C47.0937 8.33193 47.0392 8.3167 46.9837 8.31668Z" fill="#003087"/>
<path d="M65.7676 5.19761L64.2693 14.7275C64.2625 14.7709 64.2652 14.8153 64.2772 14.8576C64.2892 14.8999 64.3102 14.9391 64.3387 14.9725C64.3673 15.0059 64.4028 15.0327 64.4427 15.0511C64.4826 15.0695 64.526 15.079 64.57 15.079H66.0763C66.3258 15.079 66.5385 14.8974 66.5775 14.6508L68.0547 5.29172C68.0616 5.24829 68.059 5.20387 68.047 5.16155C68.035 5.11923 68.014 5.08 67.9855 5.04658C67.9569 5.01316 67.9214 4.98634 67.8814 4.96798C67.8414 4.94961 67.798 4.94013 67.754 4.94019H66.0683C65.9958 4.94001 65.9256 4.96582 65.8704 5.01296C65.8152 5.0601 65.7788 5.1259 65.7676 5.19761Z" fill="#009CDE"/>
<path d="M13.2611 1.7143C12.4733 0.816421 11.0493 0.431477 9.22764 0.431477H3.94057C3.76024 0.431381 3.58579 0.49565 3.44862 0.612717C3.31146 0.729783 3.22057 0.891961 3.19233 1.07007L0.991854 15.0329C0.98165 15.0977 0.985611 15.1639 1.00346 15.227C1.02131 15.2901 1.05263 15.3486 1.09526 15.3984C1.13788 15.4482 1.19081 15.4882 1.25038 15.5156C1.30995 15.543 1.37475 15.5572 1.44033 15.5572H4.70433L5.5241 10.3576L5.49869 10.5204C5.52639 10.3427 5.61667 10.1807 5.75325 10.0636C5.88983 9.94651 6.06374 9.88206 6.24363 9.88185H7.79469C10.8418 9.88185 13.2276 8.6442 13.9246 5.06396C13.9453 4.95808 13.9632 4.85502 13.9787 4.75431C14.1858 3.43101 13.9773 2.53031 13.2615 1.71478" fill="#003087"/>
<path d="M6.40512 4.77174C6.42985 4.61611 6.50924 4.47439 6.62903 4.37202C6.74883 4.26965 6.90119 4.21332 7.05877 4.21315H11.2037C11.6945 4.21315 12.1524 4.24515 12.5708 4.31197C12.7995 4.34877 13.0258 4.39937 13.2484 4.4635C13.5012 4.53458 13.7459 4.63206 13.9783 4.75432C14.1863 3.43056 13.9774 2.53032 13.2616 1.71432C12.4734 0.816905 11.0498 0.431961 9.22818 0.431961H3.94064C3.76047 0.43209 3.58625 0.496459 3.44928 0.613505C3.31231 0.730553 3.22156 0.892606 3.19335 1.07055L0.991928 15.032C0.981656 15.0968 0.985548 15.163 1.00334 15.2261C1.02113 15.2892 1.05239 15.3477 1.09497 15.3976C1.13756 15.4475 1.19045 15.4875 1.25 15.515C1.30955 15.5425 1.37435 15.5567 1.43993 15.5567H4.70441L5.52417 10.3567L6.40512 4.77174Z" fill="#003087"/>
<path d="M13.9798 4.75385C13.9636 4.85738 13.9456 4.96062 13.9256 5.06349C13.2287 8.64327 10.8428 9.88139 7.79574 9.88139H6.24421C6.06434 9.88152 5.89044 9.94595 5.75392 10.0631C5.6174 10.1802 5.52724 10.3422 5.49974 10.52L4.70538 15.5562L4.4795 16.9849C4.47052 17.0417 4.47394 17.0996 4.48954 17.1549C4.50513 17.2102 4.53253 17.2614 4.56983 17.3051C4.60714 17.3487 4.65347 17.3838 4.70563 17.4078C4.75779 17.4318 4.81454 17.4443 4.87197 17.4442H7.62351C7.94915 17.4442 8.22586 17.2071 8.27715 16.8856L8.30398 16.7454L8.82257 13.4588L8.85551 13.2772C8.88016 13.1214 8.95959 12.9796 9.07951 12.8772C9.19942 12.7748 9.35194 12.7185 9.50963 12.7186H9.92139C12.5868 12.7186 14.6739 11.6362 15.2838 8.50397C15.5379 7.19573 15.4061 6.10256 14.7332 5.33502C14.5195 5.09706 14.2642 4.90011 13.9798 4.75385Z" fill="#009CDE"/>
<path d="M13.2482 4.46349C13.1418 4.43196 13.0322 4.40372 12.9192 4.37878C12.8063 4.35384 12.6896 4.33172 12.5701 4.3129C12.1512 4.24467 11.6938 4.21266 11.2025 4.21266H7.05805C6.9003 4.21247 6.74768 4.26873 6.6278 4.37127C6.50791 4.4738 6.42867 4.61585 6.4044 4.77172L5.52346 10.3576L5.49805 10.52C5.52555 10.3422 5.61571 10.1802 5.75223 10.0631C5.88876 9.94595 6.06265 9.88151 6.24252 9.88138H7.79405C10.8411 9.88138 13.227 8.64373 13.9239 5.06349C13.9447 4.95761 13.9621 4.85502 13.9781 4.75384C13.794 4.65754 13.6023 4.57663 13.4049 4.51196C13.3536 4.49502 13.3014 4.47949 13.2482 4.46349Z" fill="#012169"/>
</svg>
