<svg width="20" height="20" viewBox="0 0 20 20" fill="none" xmlns="http://www.w3.org/2000/svg">
<g clip-path="url(#clip0_326_3283)">
<path d="M19.9469 5.76564L18.75 3.96877V2.81252C18.75 2.72964 18.7171 2.65015 18.6585 2.59155C18.5999 2.53294 18.5204 2.50002 18.4375 2.50002H15.5906C15.5283 2.19439 15.376 1.9144 15.1532 1.69608C14.9305 1.47776 14.6474 1.33112 14.3406 1.27502C14.2754 0.91476 14.0857 0.588848 13.8047 0.354159C13.5237 0.119469 13.1692 -0.00909424 12.8031 -0.00909424C12.437 -0.00909424 12.0825 0.119469 11.8015 0.354159C11.5205 0.588848 11.3309 0.91476 11.2656 1.27502C10.9628 1.33458 10.6845 1.48246 10.4656 1.70002C10.2654 1.28741 9.954 0.938895 9.56641 0.693751C9.17882 0.448607 8.73047 0.31657 8.27187 0.312518C7.90622 0.312257 7.54514 0.393847 7.21512 0.551305C6.8851 0.708764 6.59451 0.938096 6.36466 1.22248C6.13481 1.50687 5.97154 1.8391 5.88681 2.19481C5.80208 2.55051 5.79804 2.92067 5.875 3.27814L7.1875 9.40939V13.9094C6.82506 13.7589 6.42734 13.7145 6.04063 13.7813C5.89771 13.8067 5.75824 13.8487 5.625 13.9063V11.7875C5.62481 10.7655 5.3379 9.76399 4.79688 8.89689C4.31641 8.12974 4.06188 7.24271 4.0625 6.33752V4.68752C4.14538 4.68752 4.22487 4.65459 4.28347 4.59599C4.34208 4.53738 4.375 4.4579 4.375 4.37502V3.43752C4.375 3.27176 4.30915 3.11279 4.19194 2.99558C4.07473 2.87837 3.91576 2.81252 3.75 2.81252H1.875C1.70924 2.81252 1.55027 2.87837 1.43306 2.99558C1.31585 3.11279 1.25 3.27176 1.25 3.43752V4.37502C1.25 4.4579 1.28292 4.53738 1.34153 4.59599C1.40013 4.65459 1.47962 4.68752 1.5625 4.68752V6.33752C1.56312 7.24271 1.30859 8.12974 0.828125 8.89689C0.287099 9.76399 0.000186464 10.7655 0 11.7875L0 19.0625C0 19.3112 0.098772 19.5496 0.274587 19.7254C0.450403 19.9012 0.68886 20 0.9375 20H4.6875C4.84436 19.9998 4.99865 19.9601 5.13623 19.8848C5.27382 19.8095 5.3903 19.7008 5.475 19.5688C5.85318 19.8438 6.30745 19.9944 6.775 20C6.89239 20.0006 7.00957 19.9901 7.125 19.9688C7.18611 19.9585 7.24662 19.945 7.30625 19.9281C7.36081 19.9734 7.42913 19.9987 7.5 20H19.6875C19.7704 20 19.8499 19.9671 19.9085 19.9085C19.9671 19.8499 20 19.7704 20 19.6875V5.93752C19.9995 5.87626 19.981 5.81649 19.9469 5.76564ZM18.125 3.12502V3.75002H14.6875V3.12502H18.125ZM11.5625 1.87502C11.6454 1.87502 11.7249 1.84209 11.7835 1.78349C11.8421 1.72488 11.875 1.6454 11.875 1.56252C11.875 1.31388 11.9738 1.07542 12.1496 0.899605C12.3254 0.72379 12.5639 0.625018 12.8125 0.625018C13.0611 0.625018 13.2996 0.72379 13.4754 0.899605C13.6512 1.07542 13.75 1.31388 13.75 1.56252C13.75 1.6454 13.7829 1.72488 13.8415 1.78349C13.9001 1.84209 13.9796 1.87502 14.0625 1.87502C14.2559 1.87556 14.4444 1.93592 14.6022 2.04781C14.76 2.1597 14.8793 2.31766 14.9438 2.50002H14.375C14.2921 2.50002 14.2126 2.53294 14.154 2.59155C14.0954 2.65015 14.0625 2.72964 14.0625 2.81252V3.96877L12.8937 5.71877C12.6634 5.65723 12.426 5.62572 12.1875 5.62502C11.9264 5.62587 11.6667 5.66267 11.4156 5.73439L10.7094 2.44377C10.781 2.27636 10.8998 2.13343 11.0513 2.03243C11.2028 1.93143 11.3804 1.87673 11.5625 1.87502ZM14.375 8.24064L13.5938 8.95002L12.7906 8.20627C12.7328 8.15268 12.6569 8.1229 12.5781 8.1229C12.4993 8.1229 12.4234 8.15268 12.3656 8.20627L11.5625 8.95002L10.7594 8.20627C10.7016 8.15268 10.6257 8.1229 10.5469 8.1229C10.4681 8.1229 10.3922 8.15268 10.3344 8.20627L10.0219 8.51877C10.0127 8.49222 10.0054 8.46507 10 8.43752C9.97389 7.85736 10.1793 7.29059 10.5711 6.86189C10.9629 6.43319 11.5089 6.17769 12.0891 6.15158C12.6692 6.12547 13.236 6.3309 13.6647 6.72268C14.0934 7.11445 14.3489 7.66048 14.375 8.24064ZM6.48438 3.14689C6.4341 2.91236 6.43052 2.67022 6.47383 2.4343C6.51713 2.19839 6.60648 1.97331 6.73677 1.77192C6.99991 1.3652 7.41384 1.07967 7.8875 0.978143C8.36116 0.876614 8.85575 0.967405 9.26247 1.23054C9.66919 1.49368 9.95472 1.90761 10.0562 2.38127L10.8281 5.97814C10.3883 6.22095 10.0216 6.57711 9.76608 7.00961C9.51054 7.44211 9.3755 7.93516 9.375 8.43752C9.37504 8.56927 9.38444 8.70085 9.40312 8.83127L8.72812 8.20627C8.67034 8.15268 8.59444 8.1229 8.51562 8.1229C8.43681 8.1229 8.36091 8.15268 8.30313 8.20627L7.67812 8.77502L6.48438 3.14689ZM1.875 3.43752H3.75V4.06252H1.875V3.43752ZM0.625 11.7875C0.624385 10.8823 0.878906 9.99529 1.35938 9.22814C1.9004 8.36105 2.18731 7.35956 2.1875 6.33752V4.68752H3.4375V6.33752C3.43769 7.35956 3.7246 8.36105 4.26562 9.22814C4.74609 9.99529 5.00062 10.8823 5 11.7875V11.875H0.625V11.7875ZM0.625 12.5H5V14.3063C4.46865 14.8213 4.14315 15.5123 4.08437 16.25H0.625V12.5ZM4.6875 19.375H0.9375C0.85462 19.375 0.775134 19.3421 0.716529 19.2835C0.657924 19.2249 0.625 19.1454 0.625 19.0625V16.875H4.0625C4.06901 17.0217 4.08466 17.1678 4.10938 17.3125C4.22999 17.9912 4.53855 18.6224 5 19.1344C4.9835 19.2043 4.94342 19.2664 4.88651 19.3102C4.82959 19.3541 4.75931 19.3769 4.6875 19.375ZM9.16562 19.0625C8.9984 19.188 8.80769 19.2787 8.60478 19.3291C8.40188 19.3796 8.19091 19.3888 7.98438 19.3563C7.86234 19.334 7.74366 19.2962 7.63125 19.2438C7.59011 19.2247 7.54533 19.2149 7.5 19.2149C7.45467 19.2149 7.40989 19.2247 7.36875 19.2438C7.25634 19.2962 7.13766 19.334 7.01562 19.3563C6.80909 19.3888 6.59812 19.3796 6.39522 19.3291C6.19231 19.2787 6.0016 19.188 5.83437 19.0625C5.23927 18.6117 4.84529 17.945 4.7375 17.2063C4.5 15.8406 5.13125 14.5813 6.15 14.3938C6.22931 14.3787 6.3099 14.3714 6.39062 14.3719C6.67203 14.3771 6.94701 14.4569 7.1875 14.6031V15C7.1875 15.0829 7.22042 15.1624 7.27903 15.221C7.33763 15.2796 7.41712 15.3125 7.5 15.3125C7.58288 15.3125 7.66237 15.2796 7.72097 15.221C7.77958 15.1624 7.8125 15.0829 7.8125 15V14.6094C8.12132 14.4156 8.48985 14.3401 8.85 14.3969C9.86875 14.5781 10.5 15.8375 10.2625 17.2094C10.1539 17.947 9.76003 18.6125 9.16562 19.0625ZM15.3125 19.375H9.77188C10.3614 18.831 10.751 18.1046 10.8781 17.3125C11.175 15.6063 10.3156 14.0219 8.95938 13.7813C8.5973 13.7171 8.2246 13.7528 7.88125 13.8844C7.96317 13.6354 8.1213 13.4184 8.33328 13.2642C8.54526 13.11 8.80036 13.0263 9.0625 13.025C9.14538 13.025 9.22487 12.9921 9.28347 12.9335C9.34208 12.8749 9.375 12.7954 9.375 12.7125C9.375 12.6296 9.34208 12.5502 9.28347 12.4915C9.22487 12.4329 9.14538 12.4 9.0625 12.4C8.6004 12.399 8.15459 12.5706 7.8125 12.8813V9.51252L8.51562 8.86252L9.31875 9.60627C9.37654 9.65986 9.45244 9.68964 9.53125 9.68964C9.61006 9.68964 9.68596 9.65986 9.74375 9.60627L10.5469 8.86252L11.35 9.60627C11.4078 9.65986 11.4837 9.68964 11.5625 9.68964C11.6413 9.68964 11.7172 9.65986 11.775 9.60627L12.5781 8.86252L13.3813 9.60627C13.439 9.65986 13.5149 9.68964 13.5938 9.68964C13.6726 9.68964 13.7485 9.65986 13.8062 9.60627L14.6094 8.86252L15.3125 9.51252V19.375ZM15.3125 8.66252L15 8.36877C14.9893 7.86585 14.8439 7.37501 14.579 6.94739C14.3141 6.51977 13.9393 6.17103 13.4937 5.93752L14.375 4.62502L15.3125 6.03127V8.66252ZM14.9594 4.37502H18.2687L19.1031 5.62502H15.7938L14.9594 4.37502ZM15.9375 9.51252L16.6406 8.86252L17.3438 9.51252V17.675L15.9375 18.975V9.51252ZM16.425 19.375L17.6562 18.2375L18.8875 19.375H16.425ZM19.375 18.975L17.9688 17.675V9.51252L18.6719 8.86252L19.375 9.51252V18.975ZM19.375 8.66252L18.8844 8.20939C18.8266 8.1558 18.7507 8.12602 18.6719 8.12602C18.5931 8.12602 18.5172 8.1558 18.4594 8.20939L17.6562 8.95002L16.8531 8.20939C16.7953 8.1558 16.7194 8.12602 16.6406 8.12602C16.5618 8.12602 16.4859 8.1558 16.4281 8.20939L15.9375 8.66252V6.25002H19.375V8.66252Z" fill="#1E518D"/>
<path d="M8.03468 4.90937L9.28468 3.65937C9.31381 3.63023 9.33693 3.59564 9.3527 3.55757C9.36846 3.51951 9.37658 3.4787 9.37658 3.4375C9.37658 3.39629 9.36846 3.35549 9.3527 3.31742C9.33693 3.27935 9.31381 3.24476 9.28468 3.21562C9.25554 3.18648 9.22095 3.16337 9.18288 3.1476C9.14481 3.13183 9.10401 3.12372 9.0628 3.12372C9.0216 3.12372 8.98079 3.13183 8.94272 3.1476C8.90465 3.16337 8.87006 3.18648 8.84093 3.21562L7.59093 4.46562C7.53208 4.52447 7.49902 4.60428 7.49902 4.6875C7.49902 4.77072 7.53208 4.85053 7.59093 4.90937C7.64977 4.96822 7.72958 5.00128 7.8128 5.00128C7.89602 5.00128 7.97583 4.96822 8.03468 4.90937Z" fill="#1E518D"/>
<path d="M8.21548 7.09687C8.24454 7.12616 8.2791 7.14941 8.31718 7.16528C8.35526 7.18114 8.39611 7.18931 8.43736 7.18931C8.47861 7.18931 8.51946 7.18114 8.55754 7.16528C8.59562 7.14941 8.63018 7.12616 8.65923 7.09687L9.90923 5.84687C9.96808 5.78803 10.0011 5.70822 10.0011 5.625C10.0011 5.54178 9.96808 5.46197 9.90923 5.40312C9.85039 5.34428 9.77058 5.31122 9.68736 5.31122C9.60414 5.31122 9.52433 5.34428 9.46548 5.40312L8.21548 6.65312C8.18619 6.68217 8.16295 6.71674 8.14708 6.75482C8.13121 6.7929 8.12305 6.83374 8.12305 6.875C8.12305 6.91625 8.13121 6.9571 8.14708 6.99518C8.16295 7.03326 8.18619 7.06782 8.21548 7.09687Z" fill="#1E518D"/>
</g>
<defs>
<clipPath id="clip0_326_3283">
<rect width="20" height="20" fill="white"/>
</clipPath>
</defs>
</svg>
