<svg width="20" height="20" viewBox="0 0 20 20" fill="none" xmlns="http://www.w3.org/2000/svg">
<path d="M19.375 9.72656H18.1289C17.3711 9.09844 16.6489 8.78621 15.9684 8.66082V7.79309C16.3113 7.72238 16.7809 7.60137 17.105 7.32285C17.4938 6.98863 17.7392 6.39191 17.7302 5.8027C17.7279 5.655 17.6087 5.53578 17.461 5.53352C16.9051 5.52449 16.3111 5.76348 15.9684 6.12945V5.37703C16.3113 5.30633 16.7809 5.18531 17.105 4.9068C17.4938 4.57258 17.7392 3.9759 17.7302 3.38664C17.7279 3.23895 17.6087 3.11973 17.461 3.11746C16.9051 3.10871 16.3111 3.34746 15.9684 3.71344V3.18516C16.1356 2.93707 16.3971 2.5384 16.4282 2.12539C16.4616 1.68434 16.2482 1.17168 15.8846 0.819336C15.7786 0.716523 15.6101 0.716523 15.504 0.819336C15.153 1.15965 14.9345 1.6827 14.9602 2.12082C14.9831 2.51082 15.1988 2.84195 15.3892 3.13414C15.4002 3.15105 15.4106 3.16742 15.4214 3.1841V3.71281C15.0787 3.3473 14.4859 3.10941 13.9296 3.11758C13.7819 3.11988 13.6627 3.23906 13.6604 3.38676C13.6513 3.97598 13.8966 4.5727 14.2855 4.90691C14.6094 5.18523 15.0786 5.30625 15.4214 5.37699V6.12883C15.0847 5.76973 14.5059 5.5334 13.9589 5.5334C13.9491 5.5334 13.9393 5.53348 13.9296 5.53363C13.7819 5.53594 13.6627 5.65512 13.6604 5.80281C13.6513 6.39199 13.8966 6.98871 14.2855 7.32297C14.6094 7.60129 15.0786 7.7223 15.4214 7.79305V8.59734C14.6239 8.55711 13.8899 8.73996 13.23 8.91574C12.3815 8.43773 11.3883 8.17832 10.273 8.14207V7.40254C10.6159 7.33184 11.0856 7.21082 11.4096 6.9323C11.7986 6.59805 12.0439 6.00133 12.0348 5.41215C12.0325 5.26445 11.9134 5.14527 11.7656 5.14297C11.2102 5.13398 10.6157 5.37297 10.273 5.73895V4.98648C10.6159 4.91578 11.0856 4.79477 11.4096 4.51625C11.7986 4.18203 12.0439 3.58531 12.0348 2.99609C12.0325 2.8484 11.9134 2.72922 11.7656 2.72691C11.2102 2.7182 10.6157 2.95695 10.273 3.32289V2.79457C10.4402 2.54652 10.7017 2.14781 10.7329 1.73473C10.7662 1.29371 10.5529 0.781094 10.1893 0.428672C10.0833 0.325859 9.91477 0.325859 9.80871 0.428672C9.45766 0.769023 9.2391 1.29207 9.26484 1.73016C9.28777 2.1202 9.50355 2.45145 9.69394 2.74367C9.70492 2.76051 9.71531 2.7768 9.72609 2.7934V3.32211C9.38328 2.9566 8.78922 2.71844 8.23426 2.72691C8.08656 2.72922 7.96738 2.84836 7.96508 2.99605C7.9559 3.58523 8.20129 4.18195 8.59023 4.51625C8.91406 4.79457 9.3832 4.91559 9.72609 4.98633V5.73816C9.38328 5.37262 8.78922 5.13457 8.23426 5.14297C8.08656 5.14527 7.96738 5.26441 7.96508 5.41211C7.9559 6.00129 8.20129 6.59797 8.59023 6.9323C8.91406 7.21062 9.38324 7.33164 9.72609 7.40238V8.14188C8.54207 8.17902 7.41844 8.45543 6.5902 8.91586C5.9602 8.74781 5.29262 8.57891 4.5777 8.59652V7.79316C4.92063 7.72246 5.39027 7.60145 5.71434 7.32293C6.10324 6.98867 6.34859 6.39195 6.33949 5.80277C6.33719 5.65508 6.21805 5.5359 6.07031 5.53359C5.51539 5.52488 4.92043 5.76363 4.5777 6.12957V5.37711C4.92063 5.30641 5.39031 5.18539 5.71434 4.90687C6.10324 4.57266 6.34859 3.97594 6.33949 3.38672C6.33719 3.23902 6.21805 3.11984 6.07031 3.11754C5.51539 3.10926 4.92043 3.34758 4.5777 3.71355V3.1852C4.74492 2.93711 5.00637 2.53844 5.03758 2.12535C5.0709 1.68434 4.85754 1.17172 4.49402 0.819297C4.38797 0.716484 4.21945 0.716484 4.1134 0.819297C3.76234 1.15965 3.54379 1.6827 3.56953 2.12078C3.59246 2.51086 3.80828 2.84207 3.99867 3.1343C4.00961 3.15113 4.02004 3.16738 4.03078 3.18398V3.71266C3.69402 3.35355 3.1152 3.11727 2.5682 3.11727C2.55844 3.11727 2.54867 3.11734 2.53891 3.1175C2.39121 3.1198 2.27203 3.23898 2.26973 3.38668C2.26063 3.97586 2.50602 4.57258 2.89492 4.90684C3.21875 5.18516 3.68789 5.30617 4.03078 5.37691V6.12875C3.68801 5.76324 3.09418 5.52508 2.53891 5.53355C2.39121 5.53586 2.27203 5.65504 2.26973 5.80273C2.26063 6.39191 2.50602 6.98859 2.89492 7.32289C3.21875 7.60121 3.68793 7.72223 4.03078 7.79297V8.64805C3.35078 8.76117 2.62852 9.07199 1.85648 9.72656H0.625C0.473984 9.72656 0.351562 9.84898 0.351562 10V10.9375C0.351562 11.4278 0.750469 11.8267 1.24082 11.8267C1.98219 11.8267 2.6193 12.253 2.90355 12.9393C3.18785 13.6257 3.03883 14.3777 2.51457 14.902C2.16785 15.2487 2.16785 15.8129 2.51461 16.1596L3.84039 17.4854C4.00836 17.6533 4.23168 17.7458 4.46926 17.7458C4.7068 17.7458 4.93012 17.6533 5.09809 17.4854C5.62305 16.9604 6.37535 16.8108 7.06125 17.0949C7.74723 17.379 8.17332 18.0168 8.17332 18.7592C8.17332 19.2495 8.57223 19.6484 9.06258 19.6484H10.9375C11.4279 19.6484 11.8268 19.2495 11.8268 18.7592C11.8268 18.0178 12.2531 17.3807 12.9394 17.0964C13.6258 16.8121 14.3777 16.9612 14.902 17.4854C15.0699 17.6533 15.2932 17.7458 15.5308 17.7458C15.7684 17.7458 15.9917 17.6533 16.1596 17.4854L17.4855 16.1596C17.8322 15.8129 17.8322 15.2487 17.4855 14.902C16.9612 14.3777 16.8122 13.6257 17.0964 12.9394C17.3807 12.253 18.0179 11.8267 18.7592 11.8267C19.2496 11.8267 19.6485 11.4278 19.6485 10.9375V10C19.6484 9.84898 19.526 9.72656 19.375 9.72656ZM16.3525 6.51859C16.5292 6.31984 16.8408 6.16539 17.159 6.10629C17.1021 6.42914 16.9499 6.73504 16.7485 6.90816C16.574 7.05813 16.298 7.15172 16.0524 7.2132C16.1151 6.94738 16.1963 6.6943 16.3525 6.51859ZM16.3525 4.10258C16.5292 3.90383 16.8408 3.74934 17.159 3.69027C17.1021 4.01312 16.9499 4.31902 16.7485 4.49215C16.574 4.64211 16.298 4.7357 16.0524 4.79719C16.1151 4.53141 16.1963 4.27828 16.3525 4.10258ZM14.642 4.49211C14.4406 4.31898 14.2884 4.01309 14.2315 3.69027C14.5497 3.74938 14.8613 3.90383 15.038 4.10262C15.1942 4.27832 15.2754 4.53137 15.3381 4.79719C15.0925 4.7357 14.8165 4.64207 14.642 4.49211ZM14.642 6.90816C14.4406 6.73504 14.2884 6.42914 14.2315 6.10633C14.5497 6.16539 14.8613 6.31988 15.038 6.51863C15.1942 6.69434 15.2754 6.94742 15.3381 7.21324C15.0925 7.15172 14.8165 7.05813 14.642 6.90816ZM15.6957 1.44953C15.825 1.65422 15.8977 1.88937 15.883 2.08418C15.8707 2.24621 15.7875 2.43062 15.6948 2.59383C15.595 2.42469 15.5159 2.25445 15.5062 2.08875C15.4946 1.89316 15.5691 1.65391 15.6957 1.44953ZM10.6572 6.12797C10.8339 5.92922 11.1455 5.77477 11.4637 5.71566C11.4068 6.03852 11.2546 6.34438 11.0532 6.5175C10.8787 6.66746 10.6027 6.76105 10.3571 6.82254C10.4198 6.55676 10.5011 6.30367 10.6572 6.12797ZM10.6572 3.71195C10.8339 3.5132 11.1455 3.35875 11.4637 3.29965C11.4068 3.6225 11.2546 3.92836 11.0532 4.10152C10.8787 4.25148 10.6027 4.34508 10.3571 4.40656C10.4198 4.14074 10.5011 3.88766 10.6572 3.71195ZM8.94676 4.10148C8.74531 3.92832 8.59312 3.62246 8.53621 3.29965C8.85441 3.35875 9.16605 3.5132 9.34273 3.71199C9.49891 3.88766 9.58016 4.14078 9.64281 4.40656C9.39723 4.34508 9.12125 4.25145 8.94676 4.10148ZM8.94676 6.51754C8.74531 6.34438 8.59312 6.03852 8.53621 5.7157C8.85441 5.77481 9.16605 5.92926 9.34273 6.12805C9.49891 6.30371 9.58016 6.55684 9.64281 6.82262C9.39723 6.76109 9.12121 6.66746 8.94676 6.51754ZM4.96195 6.51859C5.13863 6.31984 5.45023 6.16539 5.76848 6.10629C5.71152 6.42914 5.55934 6.73504 5.35793 6.90816C5.18348 7.05813 4.90746 7.15172 4.66188 7.2132C4.72453 6.94742 4.80578 6.6943 4.96195 6.51859ZM4.96195 4.10258C5.13863 3.90383 5.45023 3.74934 5.76848 3.69027C5.71152 4.01309 5.55934 4.31898 5.35793 4.49215C5.18344 4.64211 4.90746 4.7357 4.66188 4.79719C4.72453 4.53137 4.80574 4.27828 4.96195 4.10258ZM3.25148 4.49211C3.05004 4.31898 2.89785 4.01309 2.8409 3.69027C3.15914 3.74934 3.47078 3.90383 3.64746 4.10262C3.80363 4.27828 3.88488 4.53141 3.94754 4.79719C3.70199 4.7357 3.42598 4.64207 3.25148 4.49211ZM3.25148 6.90816C3.05004 6.735 2.89785 6.42914 2.8409 6.10629C3.15914 6.16539 3.47078 6.31984 3.64746 6.51859C3.80363 6.6943 3.88488 6.94742 3.94754 7.2132C3.70199 7.15172 3.42594 7.05809 3.25148 6.90816ZM4.30516 1.44957C4.43445 1.65426 4.50711 1.88941 4.49242 2.08418C4.48016 2.24621 4.39691 2.43066 4.3043 2.59383C4.20441 2.42469 4.12535 2.25445 4.11559 2.08871C4.10406 1.89316 4.17859 1.65395 4.30516 1.44957ZM10.0004 1.05891C10.1297 1.26359 10.2024 1.49875 10.1877 1.69352C10.1754 1.85555 10.0922 2.04 9.99957 2.2032C9.89969 2.03406 9.82063 1.86383 9.81086 1.69809C9.79934 1.50254 9.87387 1.26328 10.0004 1.05891ZM6.54004 9.46844L6.55785 9.4732C6.62875 9.49219 6.70445 9.4818 6.76777 9.44438C7.5843 8.96113 8.76238 8.68398 10 8.68398C11.1727 8.68398 12.1996 8.93981 13.0521 9.44438C13.1154 9.4818 13.1911 9.49219 13.262 9.4732C14.4248 9.16223 15.7229 8.81516 17.1972 9.72656H2.76859C4.15676 8.83113 5.31891 9.1418 6.54004 9.46844ZM14.222 10.2734C14.0805 12.4795 12.2411 14.231 10 14.231C7.75887 14.231 5.91949 12.4795 5.77805 10.2734H14.222ZM19.1016 10.9375C19.1016 11.1262 18.948 11.2798 18.7592 11.2798C17.7924 11.2798 16.9617 11.8355 16.5912 12.7301C16.2206 13.6246 16.4151 14.605 17.0987 15.2886C17.2322 15.4221 17.2322 15.6394 17.0987 15.7729L15.7729 17.0987C15.7082 17.1633 15.6223 17.1989 15.5307 17.1989C15.4393 17.1989 15.3533 17.1633 15.2886 17.0987C14.605 16.415 13.6246 16.2206 12.7301 16.5912C11.8355 16.9617 11.2798 17.7924 11.2798 18.7592C11.2798 18.948 11.1262 19.1016 10.9375 19.1016H9.06254C8.87375 19.1016 8.72016 18.948 8.72016 18.7592C8.72016 17.7914 8.16469 16.96 7.27051 16.5897C6.97082 16.4655 6.6616 16.405 6.35687 16.405C5.75242 16.405 5.16633 16.6437 4.71133 17.0987C4.64672 17.1634 4.56074 17.1989 4.46926 17.1989C4.37773 17.1989 4.29176 17.1634 4.22711 17.0987L2.90133 15.7729C2.76781 15.6394 2.76781 15.4222 2.90133 15.2887C3.58492 14.6051 3.77938 13.6246 3.40883 12.7301C3.03828 11.8355 2.20754 11.2798 1.24082 11.2798C1.05203 11.2798 0.898438 11.1263 0.898438 10.9375V10.2734H5.23012C5.37234 12.7812 7.45727 14.7779 10 14.7779C12.5427 14.7779 14.6277 12.7812 14.7699 10.2734H19.1016V10.9375ZM12.835 12.2522C12.835 12.4032 12.7126 12.5257 12.5616 12.5257H7.43836C7.28734 12.5257 7.16492 12.4032 7.16492 12.2522C7.16492 12.1012 7.28734 11.9788 7.43836 11.9788H12.5616C12.7126 11.9788 12.835 12.1012 12.835 12.2522ZM13.2205 11.3996H6.77949C6.62848 11.3996 6.50605 11.2771 6.50605 11.1261C6.50605 10.9751 6.62848 10.8527 6.77949 10.8527H13.2205C13.3716 10.8527 13.494 10.9751 13.494 11.1261C13.494 11.2771 13.3716 11.3996 13.2205 11.3996ZM10.7454 13.3783C10.7454 13.5293 10.623 13.6518 10.472 13.6518H9.52801C9.37699 13.6518 9.25457 13.5293 9.25457 13.3783C9.25457 13.2273 9.37699 13.1049 9.52801 13.1049H10.472C10.623 13.1049 10.7454 13.2273 10.7454 13.3783Z" fill="#1E518D"/>
</svg>
