<svg width="20" height="20" viewBox="0 0 20 20" fill="none" xmlns="http://www.w3.org/2000/svg">
<path fill-rule="evenodd" clip-rule="evenodd" d="M10.5187 8.99606C10.5114 8.92314 10.4773 8.83966 10.3221 8.75942C10.0778 8.6395 9.87737 8.75262 9.45189 8.56578C9.44849 8.56442 9.44525 8.56306 9.44253 8.56122C9.04381 8.35178 8.95306 8.05638 8.9471 7.84558C8.94686 7.83918 8.94686 7.83234 8.9471 7.8257C8.95738 7.60346 9.0525 7.29894 9.45078 7.1103C9.53721 7.06778 9.62957 7.03622 9.72742 7.01542V6.90318C9.72742 6.75226 9.84949 6.63066 9.99973 6.63066C10.1502 6.63066 10.2723 6.7523 10.2723 6.90318V7.0079C10.5073 7.0413 10.7199 7.11034 10.9177 7.2171C11.0499 7.28866 11.0992 7.45442 11.0277 7.58658C10.9561 7.71894 10.7908 7.76834 10.6582 7.69678C10.4243 7.57026 9.95557 7.45046 9.68558 7.60234C9.52781 7.67666 9.49765 7.76034 9.49214 7.84058C9.49441 7.88746 9.51042 7.97982 9.6913 8.07654C9.91461 8.1881 10.2393 8.10046 10.5658 8.27226C11.3594 8.68326 11.1621 9.63454 10.2723 9.8217V9.93214C10.2723 10.0826 10.1502 10.2047 9.99973 10.2047C9.84953 10.2047 9.72742 10.0826 9.72742 9.93214V9.8281C9.50314 9.79586 9.28729 9.72614 9.08245 9.62026C8.94869 9.55098 8.89634 9.38662 8.96562 9.25306C9.03466 9.1193 9.19905 9.06694 9.33257 9.13598C9.60845 9.27858 10.0273 9.37794 10.3239 9.23362C10.4767 9.15838 10.5107 9.07242 10.5187 8.99606ZM7.85786 8.77406C7.87134 8.85566 7.84685 8.93934 7.79133 9.00062L7.34777 9.49378L7.7415 10.1763L8.39081 10.0382C8.47221 10.0206 8.55657 10.0414 8.62081 10.0944C8.80645 10.2471 9.01405 10.3669 9.23741 10.4509C9.31494 10.4799 9.37505 10.5428 9.40089 10.6221L9.60598 11.2525H10.3936L10.5987 10.6221C10.6239 10.5432 10.6844 10.4803 10.7619 10.4509C10.986 10.3669 11.1934 10.2471 11.379 10.0944C11.443 10.0418 11.5276 10.021 11.6088 10.0382L12.2579 10.1763L12.6518 9.49378L12.2078 9.00062C12.1525 8.9389 12.1282 8.85566 12.1417 8.77406C12.1804 8.53838 12.1804 8.29602 12.1417 8.06074C12.1282 7.9791 12.1525 7.8959 12.2082 7.83414L12.6518 7.34142L12.2579 6.65894L11.6088 6.79682C11.5271 6.81418 11.4426 6.79338 11.3785 6.74082C11.1931 6.58762 10.9855 6.46782 10.7619 6.38394C10.6844 6.3549 10.6243 6.29202 10.5987 6.21314L10.3936 5.58282H9.60594L9.40086 6.21314C9.37501 6.29202 9.31489 6.3549 9.23737 6.38394C9.01353 6.46786 8.80642 6.58766 8.62078 6.74082C8.55674 6.79342 8.47218 6.81422 8.39078 6.79682L7.74146 6.65894L7.34773 7.34142L7.7913 7.83414C7.84686 7.89586 7.87134 7.9791 7.85781 8.06074C7.81913 8.29626 7.81929 8.53862 7.85786 8.77406ZM7.30161 8.10482C7.27777 8.30814 7.27785 8.52686 7.30161 8.73038L6.84341 9.2391C6.74417 9.34954 6.7275 9.50982 6.80158 9.63806L7.34365 10.5771C7.41773 10.7051 7.56542 10.7709 7.71038 10.7401L8.38005 10.5977C8.54833 10.7232 8.72985 10.8281 8.92169 10.9113L9.13317 11.5613C9.17913 11.7027 9.30946 11.7975 9.45762 11.7975H10.5418C10.6902 11.7975 10.8205 11.7027 10.8665 11.5616L11.0775 10.9113C11.2698 10.8281 11.4513 10.7232 11.6201 10.5977L12.2893 10.7401C12.4342 10.7707 12.5815 10.7051 12.656 10.5771L13.1976 9.63806C13.2721 9.50978 13.2555 9.34954 13.1558 9.2391L12.6981 8.73038C12.7218 8.52314 12.7219 8.31166 12.6981 8.10482L13.1558 7.5961C13.2555 7.48546 13.2721 7.32538 13.1981 7.1967L12.656 6.25814C12.5817 6.12986 12.4347 6.06426 12.2893 6.0951L11.6196 6.23706C11.4513 6.11178 11.2698 6.00658 11.0779 5.92382L10.8665 5.27334C10.8205 5.1325 10.6902 5.03762 10.5418 5.03762H9.45762C9.30946 5.03762 9.17913 5.1325 9.13317 5.27334L8.92169 5.92382C8.72985 6.00658 8.54833 6.11174 8.38005 6.23706L7.70994 6.09462C7.56498 6.06422 7.41773 6.12982 7.34365 6.2581L6.80158 7.19666C6.7275 7.32538 6.74417 7.48542 6.84365 7.59606L7.30161 8.10482ZM17.7417 10.3724C17.7868 10.2092 17.6907 10.0395 17.5273 9.99402C17.3646 9.9493 17.1937 10.0464 17.1491 10.2085C16.616 12.147 16.3485 12.6114 16.11 12.7502L14.7611 13.5349C14.7595 13.7363 14.6833 13.9313 14.5434 14.0817L12.9601 15.7873C12.9101 15.8415 12.8419 15.8687 12.7736 15.8687C12.5541 15.8687 12.4357 15.6047 12.5873 15.4414L14.1708 13.7358C14.2405 13.6611 14.2677 13.5561 14.2442 13.4553C14.1877 13.2159 13.8859 13.1399 13.7206 13.3177L11.8514 15.3304C11.6219 15.578 11.4913 15.8491 11.4419 16.1829L11.3306 16.9306H14.0347C14.103 16.4461 14.3285 16.0396 14.7048 15.7227L16.4173 14.2805C16.6825 14.0571 16.8466 13.7969 16.9342 13.4615L17.7406 10.3761C17.7411 10.3749 17.7413 10.3738 17.7417 10.3724ZM14.3902 18.475H10.8269V17.4393H14.3902V18.475ZM17.6631 9.50406C17.2296 9.38434 16.7787 9.63954 16.6589 10.0727C16.1706 11.8383 15.9335 12.2543 15.85 12.3126L14.6005 13.0396C14.2971 12.6329 13.6947 12.5976 13.3476 12.9715L11.4789 14.9844C11.1799 15.3063 11.0034 15.6739 10.9387 16.1081L10.8161 16.9305C10.5305 16.9305 10.3181 17.1428 10.3181 17.4118V18.5024C10.3181 18.7676 10.5342 18.9837 10.7999 18.9837H14.4173C14.683 18.9837 14.8988 18.7676 14.8988 18.5024V17.4118C14.8988 17.1914 14.7495 17.0053 14.5463 16.9486C14.6055 16.6113 14.7646 16.337 15.0321 16.1118L16.7448 14.6695C17.0894 14.3794 17.3125 14.0262 17.4266 13.5901L18.2321 10.5061C18.3511 10.0734 18.0959 9.6239 17.6631 9.50406ZM9.17249 18.475H5.60945V17.4393H9.17249V18.475ZM5.29466 15.7227L3.58242 14.2805C3.31698 14.0571 3.15282 13.7969 3.06526 13.4615L2.25909 10.3761C2.20929 10.224 2.30337 10.0409 2.47241 9.99406C2.63545 9.94902 2.8051 10.0455 2.85014 10.2085C3.38874 12.1473 3.64525 12.608 3.88949 12.7502L5.23846 13.5349C5.2403 13.7363 5.31641 13.9313 5.45589 14.0818L7.03966 15.7874C7.13557 15.8909 7.29626 15.8959 7.39906 15.8009C7.50194 15.7053 7.50813 15.5443 7.41253 15.4415L5.82857 13.7359C5.64729 13.5404 5.78605 13.211 6.06521 13.2203C6.14777 13.2233 6.22365 13.258 6.27921 13.3177L8.14786 15.3304C8.37786 15.578 8.50841 15.8491 8.55781 16.1829L8.66893 16.9306H5.96489C5.89617 16.4459 5.67122 16.0396 5.29466 15.7227ZM9.19974 16.9306H9.18325L9.06094 16.1082C8.99621 15.674 8.81974 15.3064 8.5207 14.9845L6.65181 12.9715C6.30478 12.5975 5.70241 12.6329 5.39914 13.0397L4.14918 12.3126C4.0649 12.2537 3.83022 11.8391 3.34074 10.0727C3.2205 9.63922 2.76985 9.38406 2.33633 9.5041C1.90329 9.6239 1.64862 10.0734 1.7675 10.5064L2.57298 13.5903C2.68706 14.0263 2.90973 14.3795 3.25453 14.6697L4.96702 16.1119C5.23453 16.3371 5.39386 16.6115 5.45309 16.9487C5.25006 17.0054 5.10078 17.1915 5.10078 17.4119V18.5025C5.10078 18.7677 5.31662 18.9838 5.58226 18.9838H9.19969C9.46537 18.9838 9.68117 18.7677 9.68117 18.5025V17.4119C9.68121 17.1462 9.46537 16.9306 9.19974 16.9306ZM16.3425 4.8429C16.6509 4.8429 16.9017 5.0937 16.9017 5.40214C16.9017 5.71058 16.6509 5.96138 16.3425 5.96138C16.0341 5.96138 15.7833 5.71058 15.7833 5.40214C15.7833 5.09374 16.0341 4.8429 16.3425 4.8429ZM15.2382 5.40214C15.2382 5.91702 15.5923 6.35098 16.0699 6.47214V8.24886H14.9638C14.9352 7.39126 14.6856 6.55698 14.2384 5.8265C14.1597 5.69822 13.9919 5.65798 13.8637 5.73642C13.7352 5.81486 13.6947 5.9829 13.7736 6.11114C14.1977 6.80366 14.4217 7.60114 14.4217 8.41758C14.4217 10.6191 12.7793 12.5052 10.5951 12.7998C10.446 12.8199 10.3413 12.9571 10.3614 13.1062C10.3818 13.2573 10.5217 13.3605 10.6676 13.3399C13.0041 13.0095 14.7729 11.1324 14.9522 8.79394H16.3425C16.4929 8.79394 16.615 8.67186 16.615 8.52142V6.47218C17.0924 6.35102 17.4466 5.91706 17.4466 5.40218C17.4466 4.79334 16.9514 4.29786 16.3425 4.29786C15.7334 4.29786 15.2382 4.7933 15.2382 5.40214ZM3.96902 3.17914C4.27746 3.17914 4.52802 3.42994 4.52802 3.73838C4.52802 4.04682 4.27746 4.29786 3.96902 4.29786C3.66034 4.29786 3.40978 4.04682 3.40978 3.73838C3.40978 3.42994 3.66038 3.17914 3.96902 3.17914ZM3.6965 4.80886V8.52142C3.6965 8.67186 3.81858 8.79394 3.96902 8.79394H5.04725C5.22109 11.0778 6.94509 12.9591 9.19833 13.3202C9.34649 13.3437 9.48633 13.2453 9.51065 13.095C9.53513 12.9464 9.43406 12.8065 9.28546 12.782C7.13698 12.4333 5.57793 10.5981 5.57793 8.41762C5.57793 7.63502 5.78461 6.8661 6.17625 6.19414C6.25213 6.06426 6.20825 5.89738 6.07818 5.82146C5.94809 5.74578 5.78141 5.7899 5.70549 5.91998C5.29325 6.6267 5.06326 7.4285 5.03582 8.24886H4.2413V4.80882C4.71914 4.68718 5.0731 4.25322 5.0731 3.73834C5.0731 3.1295 4.57786 2.63402 3.96902 2.63402C3.35994 2.63402 2.8647 3.12946 2.8647 3.73834C2.86474 4.25326 3.21909 4.68722 3.6965 4.80886ZM15.1742 1.5611C15.4829 1.5611 15.7339 1.8119 15.7339 2.12034C15.7339 2.42898 15.4829 2.67958 15.1742 2.67958C14.8662 2.67958 14.6149 2.42902 14.6149 2.12034C14.6149 1.8119 14.8662 1.5611 15.1742 1.5611ZM7.12577 4.97802C7.18386 4.97802 7.24261 4.95926 7.29245 4.92066C8.80313 3.74962 10.8907 3.68482 12.4706 4.74962C12.5956 4.83374 12.7648 4.80086 12.8487 4.67622C12.9331 4.55162 12.9004 4.38218 12.7753 4.29782C12.0295 3.79438 11.1694 3.50722 10.2727 3.45878L10.275 2.3929H14.1041C14.2258 2.8703 14.6593 3.2247 15.1741 3.2247C15.7832 3.2247 16.2789 2.72946 16.2789 2.12038C16.2789 1.51154 15.7832 1.0163 15.1741 1.0163C14.6593 1.0163 14.2258 1.37046 14.1041 1.84786H10.0027C9.85225 1.84786 9.73062 1.96974 9.73018 2.12018L9.72765 3.4579C8.71618 3.51162 7.7637 3.86554 6.95822 4.49018C6.7503 4.6515 6.87454 4.97802 7.12577 4.97802Z" fill="#1E518D"/>
</svg>
