<svg width="20" height="20" viewBox="0 0 20 20" fill="none" xmlns="http://www.w3.org/2000/svg">
<g clip-path="url(#clip0_326_3241)">
<path d="M4.88281 17.6172C3.41797 17.6172 2.22656 16.4258 2.22656 14.9609C2.22656 13.4961 3.41797 12.3047 4.88281 12.3047C6.34766 12.3047 7.53906 13.4961 7.53906 14.9609C7.53906 16.4258 6.34766 17.6172 4.88281 17.6172ZM4.88281 12.6953C3.63281 12.6953 2.61719 13.7109 2.61719 14.9609C2.61719 16.2109 3.63281 17.2266 4.88281 17.2266C6.13281 17.2266 7.14844 16.2109 7.14844 14.9609C7.14844 13.7109 6.13281 12.6953 4.88281 12.6953Z" fill="#1E518D"/>
<path d="M4.88281 16.4062C4.08594 16.4062 3.4375 15.7578 3.4375 14.9609C3.4375 14.1641 4.08594 13.5156 4.88281 13.5156C5.67969 13.5156 6.32812 14.1641 6.32812 14.9609C6.32812 15.7578 5.67969 16.4062 4.88281 16.4062ZM4.88281 13.9062C4.30078 13.9062 3.82812 14.3789 3.82812 14.9609C3.82812 15.543 4.30078 16.0156 4.88281 16.0156C5.46484 16.0156 5.9375 15.543 5.9375 14.9609C5.9375 14.3789 5.46484 13.9062 4.88281 13.9062Z" fill="#1E518D"/>
<path d="M2.42188 16.1719H0.195312C0.0859375 16.1719 0 16.0859 0 15.9766V13.9453C0 13.8359 0.0859375 13.75 0.195312 13.75H2.42188C2.53125 13.75 2.61719 13.8359 2.61719 13.9453V15.9766C2.61719 16.0859 2.53125 16.1719 2.42188 16.1719ZM0.390625 15.7812H2.22656V14.1406H0.390625V15.7812Z" fill="#1E518D"/>
<path d="M1.09375 13.9453H0.703125V12.0312C0.703125 11.9844 0.71875 11.9414 0.75 11.9062C1.92969 10.4961 3.65625 9.6875 5.49609 9.6875H7.44531L8.47656 8.40625C9.26953 7.42188 10.293 6.61328 11.4375 6.06641C12.5781 5.51953 13.8516 5.23047 15.1172 5.23047V5.62109C12.6445 5.62109 10.3359 6.72656 8.78125 8.64844L7.69141 10C7.65625 10.0469 7.59766 10.0742 7.53906 10.0742H5.49609C3.79688 10.0742 2.19531 10.8125 1.09375 12.0977V13.9453Z" fill="#1E518D"/>
<path d="M10.6641 10.0781H8.82812C8.71875 10.0781 8.63281 9.99219 8.63281 9.88281V9.375C8.63281 8.98828 8.94922 8.67188 9.33594 8.67188H10.6641C11.0508 8.67188 11.3672 8.98828 11.3672 9.375C11.3672 9.76172 11.0508 10.0781 10.6641 10.0781ZM9.02344 9.6875H10.6641C10.8359 9.6875 10.9766 9.54688 10.9766 9.375C10.9766 9.20312 10.8359 9.0625 10.6641 9.0625H9.33594C9.16406 9.0625 9.02344 9.20312 9.02344 9.375V9.6875Z" fill="#1E518D"/>
<path d="M2.30464 12.2266H0.89839C0.824171 12.2266 0.753859 12.1836 0.722609 12.1133C0.691359 12.043 0.699171 11.9648 0.749953 11.9062C1.28511 11.2656 2.07027 10.8984 2.9062 10.8984H3.24214C3.35152 10.8984 3.43745 10.9844 3.43745 11.0938C3.43745 11.7188 2.92964 12.2266 2.30464 12.2266ZM1.37105 11.8359H2.30464C2.64448 11.8359 2.93355 11.6055 3.01948 11.2891H2.9023C2.3398 11.2891 1.80073 11.4844 1.37105 11.8359Z" fill="#1E518D"/>
<path d="M18.4375 17.6172C18.4023 17.6172 18.3672 17.6094 18.3359 17.5899C18.2773 17.5547 18.2422 17.4922 18.2422 17.4219V15.8477L17.4609 15.4492L16.6797 15.8477V17.4219C16.6797 17.4883 16.6445 17.5547 16.5859 17.5899C16.5273 17.625 16.457 17.6289 16.3945 17.5977L15.3672 17.0703L15.5469 16.7227L16.293 17.1055V15.7305C16.293 15.6563 16.3359 15.5899 16.3984 15.5547L17.375 15.0547C17.4297 15.0274 17.4961 15.0274 17.5547 15.0547L18.5312 15.5547C18.5977 15.5899 18.6367 15.6563 18.6367 15.7305V17.1055L19.6133 16.6055V14.4453L18.3516 13.8008C18.2852 13.7656 18.2461 13.6992 18.2461 13.625V6.37501C18.2461 6.30079 18.2891 6.23439 18.3516 6.19923L19.6133 5.5547V3.39845L18.6367 2.89845V4.27345C18.6367 4.34767 18.5938 4.41407 18.5312 4.44923L17.5547 4.94923C17.5 4.97657 17.4336 4.97657 17.375 4.94923L16.3984 4.44923C16.332 4.41407 16.293 4.34767 16.293 4.27345V2.89845L15.3125 3.39845V5.5586L16.5742 6.20314C16.6406 6.23829 16.6797 6.3047 16.6797 6.37892V13.6289C16.6797 13.7031 16.6367 13.7695 16.5742 13.8047L15.3125 14.4453V14.9219C15.3125 15.0313 15.2266 15.1172 15.1172 15.1172H15.0781C15.0273 15.2891 14.957 15.4531 14.875 15.6094L15.2344 15.9688C15.2695 16.0039 15.293 16.0547 15.293 16.1055C15.293 16.1563 15.2734 16.207 15.2344 16.2422L14.4062 17.0703C14.3281 17.1484 14.207 17.1484 14.1289 17.0703L13.7695 16.7109C13.6133 16.793 13.4492 16.8633 13.2773 16.9141V17.4219C13.2773 17.5313 13.1914 17.6172 13.082 17.6172H11.9102C11.8008 17.6172 11.7148 17.5313 11.7148 17.4219V16.9141C11.543 16.8633 11.3789 16.793 11.2227 16.7109L10.8633 17.0703C10.7852 17.1484 10.6641 17.1484 10.5859 17.0703L9.76562 16.2422C9.6875 16.1641 9.6875 16.043 9.76562 15.9649L10.125 15.6055C10.043 15.4492 9.97266 15.2852 9.92188 15.1133H9.41406C9.30469 15.1133 9.21875 15.0274 9.21875 14.918V13.7461C9.21875 13.6367 9.30469 13.5508 9.41406 13.5508H9.92188C9.97266 13.3789 10.043 13.2149 10.125 13.0586L9.76562 12.6992C9.6875 12.6211 9.6875 12.5 9.76562 12.4219L10.5938 11.5938C10.6719 11.5156 10.793 11.5156 10.8711 11.5938L11.2305 11.9531C11.3867 11.8711 11.5508 11.8008 11.7227 11.75V11.2422C11.7227 11.1328 11.8086 11.0469 11.918 11.0469H13.0898C13.1992 11.0469 13.2852 11.1328 13.2852 11.2422V11.75C13.457 11.8008 13.6211 11.8711 13.7773 11.9531L14.1367 11.5938C14.2148 11.5156 14.3359 11.5156 14.4141 11.5938L15.2422 12.4219C15.2773 12.457 15.3008 12.5078 15.3008 12.5586C15.3008 12.6094 15.2813 12.6602 15.2422 12.6953L14.8828 13.0547C14.9648 13.2109 15.0352 13.375 15.0859 13.5469H15.5938C15.7031 13.5469 15.7891 13.6328 15.7891 13.7422V13.7578L16.2969 13.4961V6.4961L15.0352 5.85157C14.9687 5.81642 14.9297 5.75001 14.9297 5.67579V3.27735C14.9297 3.20314 14.9727 3.13673 15.0352 3.10157L16.4023 2.40235C16.4609 2.3711 16.5352 2.37501 16.5937 2.41017C16.6523 2.44532 16.6875 2.50782 16.6875 2.57814V4.15235L17.4688 4.55079L18.25 4.15235V2.57814C18.25 2.51173 18.2852 2.44532 18.3438 2.41017C18.4023 2.37501 18.4727 2.3711 18.5352 2.40235L19.9023 3.10157C19.9688 3.13673 20.0078 3.20314 20.0078 3.27735V5.67579C20.0078 5.75001 19.9648 5.81642 19.9023 5.85157L18.6328 6.4961V13.5078L19.8945 14.1524C19.9609 14.1875 20 14.2539 20 14.3281V16.7266C20 16.8008 19.957 16.8672 19.8945 16.9024L18.5273 17.6016C18.5 17.6094 18.4688 17.6172 18.4375 17.6172ZM12.1094 17.2266H12.8906V16.7656C12.8906 16.6758 12.9531 16.5977 13.0391 16.5742C13.2734 16.5195 13.4961 16.4258 13.6992 16.3008C13.7773 16.2539 13.875 16.2656 13.9375 16.3281L14.2617 16.6524L14.8125 16.1016L14.4883 15.7774C14.4258 15.7149 14.4141 15.6133 14.4609 15.5391C14.5859 15.3359 14.6797 15.1133 14.7344 14.8789C14.7539 14.793 14.8281 14.7344 14.9141 14.7305V14.3281C14.9141 14.2539 14.957 14.1875 15.0195 14.1524L15.3828 13.9688V13.9453H14.9219C14.832 13.9453 14.7539 13.8828 14.7305 13.7969C14.6758 13.5625 14.582 13.3399 14.457 13.1367C14.4102 13.0586 14.4219 12.9609 14.4844 12.8984L14.8086 12.5742L14.2578 12.0234L13.9336 12.3477C13.8711 12.4102 13.7695 12.4219 13.6953 12.375C13.4922 12.25 13.2695 12.1563 13.0352 12.1016C12.9492 12.082 12.8867 12.0039 12.8867 11.9102V11.4453H12.1055V11.9063C12.1055 11.9961 12.043 12.0742 11.957 12.0977C11.7227 12.1524 11.5 12.2461 11.2969 12.3711C11.2188 12.418 11.1211 12.4063 11.0586 12.3438L10.7344 12.0195L10.1836 12.5703L10.5078 12.8945C10.5703 12.957 10.582 13.0586 10.5352 13.1328C10.4102 13.3359 10.3164 13.5586 10.2617 13.793C10.2422 13.8789 10.1602 13.9414 10.0703 13.9414H9.60938V14.7227H10.0703C10.1602 14.7227 10.2383 14.7852 10.2617 14.8711C10.3164 15.1055 10.4102 15.3281 10.5352 15.5313C10.582 15.6094 10.5703 15.707 10.5078 15.7695L10.1836 16.0938L10.7344 16.6445L11.0586 16.3203C11.1211 16.2578 11.2227 16.2461 11.2969 16.293C11.5 16.418 11.7227 16.5117 11.957 16.5664C12.043 16.5859 12.1055 16.6641 12.1055 16.7578V17.2266H12.1094ZM12.5 15.8984C11.6367 15.8984 10.9375 15.1992 10.9375 14.3359C10.9375 13.4727 11.6367 12.7734 12.5 12.7734C13.3633 12.7734 14.0625 13.4727 14.0625 14.3359C14.0625 15.1992 13.3633 15.8984 12.5 15.8984ZM12.5 13.1641C11.8555 13.1641 11.3281 13.6914 11.3281 14.3359C11.3281 14.9805 11.8555 15.5078 12.5 15.5078C13.1445 15.5078 13.6719 14.9805 13.6719 14.3359C13.6719 13.6914 13.1445 13.1641 12.5 13.1641Z" fill="#1E518D"/>
<path d="M9.81641 8.99219L9.51562 8.74219L9.75 8.46094C10.9297 7.03125 12.668 6.21094 14.5234 6.21094H16.4844V6.60156H14.5234C12.7852 6.60156 11.1562 7.37109 10.0508 8.71094L9.81641 8.99219Z" fill="#1E518D"/>
<path d="M8.82812 9.6875H15.7031V10.0781H8.82812V9.6875Z" fill="#1E518D"/>
<path d="M10.0312 16.1719H7.34375C7.23438 16.1719 7.14844 16.0859 7.14844 15.9766V13.9453C7.14844 13.8359 7.23438 13.75 7.34375 13.75H9.41406V14.1406H7.53906V15.7812H10.0312V16.1719Z" fill="#1E518D"/>
<path d="M11.1914 13.75H13.8125V14.1406H11.1914V13.75Z" fill="#1E518D"/>
</g>
<defs>
<clipPath id="clip0_326_3241">
<rect width="20" height="20" fill="white"/>
</clipPath>
</defs>
</svg>
