<svg width="16" height="17" viewBox="0 0 16 17" fill="none" xmlns="http://www.w3.org/2000/svg">
<path d="M14.25 2H12.375V1.375C12.375 1.20924 12.3092 1.05027 12.1919 0.933058C12.0747 0.815848 11.9158 0.75 11.75 0.75C11.5842 0.75 11.4253 0.815848 11.3081 0.933058C11.1908 1.05027 11.125 1.20924 11.125 1.375V2H4.875V1.375C4.875 1.20924 4.80915 1.05027 4.69194 0.933058C4.57473 0.815848 4.41576 0.75 4.25 0.75C4.08424 0.75 3.92527 0.815848 3.80806 0.933058C3.69085 1.05027 3.625 1.20924 3.625 1.375V2H1.75C1.41848 2 1.10054 2.1317 0.866116 2.36612C0.631696 2.60054 0.5 2.91848 0.5 3.25V15.75C0.5 16.0815 0.631696 16.3995 0.866116 16.6339C1.10054 16.8683 1.41848 17 1.75 17H14.25C14.5815 17 14.8995 16.8683 15.1339 16.6339C15.3683 16.3995 15.5 16.0815 15.5 15.75V3.25C15.5 2.91848 15.3683 2.60054 15.1339 2.36612C14.8995 2.1317 14.5815 2 14.25 2ZM3.625 3.25V3.875C3.625 4.04076 3.69085 4.19973 3.80806 4.31694C3.92527 4.43415 4.08424 4.5 4.25 4.5C4.41576 4.5 4.57473 4.43415 4.69194 4.31694C4.80915 4.19973 4.875 4.04076 4.875 3.875V3.25H11.125V3.875C11.125 4.04076 11.1908 4.19973 11.3081 4.31694C11.4253 4.43415 11.5842 4.5 11.75 4.5C11.9158 4.5 12.0747 4.43415 12.1919 4.31694C12.3092 4.19973 12.375 4.04076 12.375 3.875V3.25H14.25V5.75H1.75V3.25H3.625ZM14.25 15.75H1.75V7H14.25V15.75ZM6.75 8.875V13.875C6.75 14.0408 6.68415 14.1997 6.56694 14.3169C6.44973 14.4342 6.29076 14.5 6.125 14.5C5.95924 14.5 5.80027 14.4342 5.68306 14.3169C5.56585 14.1997 5.5 14.0408 5.5 13.875V9.88594L5.15469 10.0594C5.00633 10.1336 4.83459 10.1458 4.67723 10.0933C4.51988 10.0409 4.3898 9.92804 4.31562 9.77969C4.24145 9.63133 4.22924 9.45959 4.28169 9.30223C4.33414 9.14488 4.44696 9.0148 4.59531 8.94062L5.84531 8.31562C5.94063 8.26793 6.04657 8.2454 6.15305 8.25018C6.25954 8.25497 6.36303 8.2869 6.45369 8.34296C6.54435 8.39902 6.61916 8.47733 6.67103 8.57045C6.72289 8.66357 6.75008 8.76841 6.75 8.875ZM11.3719 11.2539L9.875 13.25H11.125C11.2908 13.25 11.4497 13.3158 11.5669 13.4331C11.6842 13.5503 11.75 13.7092 11.75 13.875C11.75 14.0408 11.6842 14.1997 11.5669 14.3169C11.4497 14.4342 11.2908 14.5 11.125 14.5H8.625C8.50893 14.5 8.39515 14.4677 8.29642 14.4067C8.19768 14.3456 8.11789 14.2583 8.06598 14.1545C8.01408 14.0507 7.9921 13.9345 8.00252 13.8189C8.01295 13.7033 8.05536 13.5929 8.125 13.5L10.3734 10.5023C10.4246 10.4343 10.4613 10.3564 10.4813 10.2737C10.5012 10.1909 10.5041 10.1049 10.4897 10.021C10.4752 9.93707 10.4438 9.85698 10.3973 9.78565C10.3508 9.71431 10.2902 9.65324 10.2192 9.60616C10.1483 9.55909 10.0684 9.52701 9.98464 9.51189C9.90084 9.49678 9.81483 9.49895 9.7319 9.51828C9.64897 9.5376 9.57086 9.57366 9.50236 9.62426C9.43387 9.67485 9.37644 9.73891 9.33359 9.8125C9.29377 9.88585 9.23965 9.95047 9.17444 10.0026C9.10923 10.0547 9.03425 10.0932 8.95392 10.1158C8.87359 10.1385 8.78954 10.1448 8.70673 10.1344C8.62391 10.124 8.54401 10.0972 8.47174 10.0555C8.39947 10.0137 8.33629 9.95791 8.28593 9.89135C8.23557 9.8248 8.19906 9.74883 8.17853 9.66793C8.15801 9.58703 8.1539 9.50284 8.16644 9.42033C8.17899 9.33781 8.20793 9.25865 8.25156 9.1875C8.45802 8.83022 8.77656 8.55103 9.15782 8.3932C9.53908 8.23537 9.96176 8.20772 10.3603 8.31453C10.7589 8.42133 11.1111 8.65664 11.3624 8.98397C11.6136 9.3113 11.7499 9.71236 11.75 10.125C11.7513 10.5326 11.6184 10.9293 11.3719 11.2539Z" fill="#C4C4C4"/>
</svg>
