<svg width="18" height="21" viewBox="0 0 18 21" fill="none" xmlns="http://www.w3.org/2000/svg">
<path fill-rule="evenodd" clip-rule="evenodd" d="M9 0.5C11.3869 0.5 13.6761 1.44821 15.364 3.13604C17.0518 4.82387 18 7.11305 18 9.5C18 12.574 16.324 15.09 14.558 16.895C13.6757 17.7871 12.7129 18.5958 11.682 19.311L11.256 19.601L11.056 19.734L10.679 19.974L10.343 20.179L9.927 20.421C9.64463 20.5822 9.32513 20.6669 9 20.6669C8.67487 20.6669 8.35537 20.5822 8.073 20.421L7.657 20.179L7.137 19.859L6.945 19.734L6.535 19.461C5.42283 18.7085 4.3869 17.8491 3.442 16.895C1.676 15.089 0 12.574 0 9.5C0 7.11305 0.948211 4.82387 2.63604 3.13604C4.32387 1.44821 6.61305 0.5 9 0.5ZM9 2.5C7.14348 2.5 5.36301 3.2375 4.05025 4.55025C2.7375 5.86301 2 7.64348 2 9.5C2 11.822 3.272 13.86 4.871 15.496C5.55853 16.192 6.30166 16.8308 7.093 17.406L7.551 17.732C7.699 17.8353 7.84133 17.9313 7.978 18.02L8.368 18.27L8.711 18.479L9 18.648L9.455 18.379L9.822 18.149C10.0173 18.025 10.2263 17.886 10.449 17.732L10.907 17.406C11.6983 16.8308 12.4415 16.192 13.129 15.496C14.728 13.861 16 11.822 16 9.5C16 7.64348 15.2625 5.86301 13.9497 4.55025C12.637 3.2375 10.8565 2.5 9 2.5ZM9 5.5C10.0609 5.5 11.0783 5.92143 11.8284 6.67157C12.5786 7.42172 13 8.43913 13 9.5C13 10.5609 12.5786 11.5783 11.8284 12.3284C11.0783 13.0786 10.0609 13.5 9 13.5C7.93913 13.5 6.92172 13.0786 6.17157 12.3284C5.42143 11.5783 5 10.5609 5 9.5C5 8.43913 5.42143 7.42172 6.17157 6.67157C6.92172 5.92143 7.93913 5.5 9 5.5ZM9 7.5C8.46957 7.5 7.96086 7.71071 7.58579 8.08579C7.21071 8.46086 7 8.96957 7 9.5C7 10.0304 7.21071 10.5391 7.58579 10.9142C7.96086 11.2893 8.46957 11.5 9 11.5C9.53043 11.5 10.0391 11.2893 10.4142 10.9142C10.7893 10.5391 11 10.0304 11 9.5C11 8.96957 10.7893 8.46086 10.4142 8.08579C10.0391 7.71071 9.53043 7.5 9 7.5Z" fill="#C3C3C3"/>
</svg>
