<svg width="32" height="26" viewBox="0 0 32 26" fill="none" xmlns="http://www.w3.org/2000/svg">
<path d="M20.7494 16.1667V11.4167H25.4994V8.24999L31.8327 13.7917L25.4994 19.3333V16.1667H20.7494ZM19.166 6.19166V8.24999H0.166016V6.19166L9.66602 0.333328L19.166 6.19166ZM8.08268 9.83332H11.2494V17.75H8.08268V9.83332ZM1.74935 9.83332H4.91602V17.75H1.74935V9.83332ZM17.5827 9.83332V13.7917L14.416 16.6417V9.83332H17.5827ZM11.4077 19.3333L10.4577 20.125L13.1494 22.5H0.166016V19.3333H11.4077ZM23.916 17.75V22.5H19.166V25.6667L12.8327 20.125L19.166 14.5833V17.75H23.916Z" fill="#26A9E1"/>
</svg>
