<svg width="22" height="23" viewBox="0 0 22 23" fill="none" xmlns="http://www.w3.org/2000/svg">
<path d="M11 0.671875C10.4565 0.671875 9.92188 1.27187 9.92188 2.125C9.92188 2.97813 10.4565 3.57812 11 3.57812C11.5435 3.57812 12.0781 2.97813 12.0781 2.125C12.0781 1.27187 11.5435 0.671875 11 0.671875ZM6.1273 0.811328L5.3727 1.18867C6.08014 2.60359 7.78067 3.85164 9.22527 4.67814L9.89066 13.3281H10.5781V8.5H11.4219V13.3281H12.1093L12.7747 4.67814C14.2193 3.85164 15.9199 2.60359 16.6273 1.18867L15.8727 0.811328C14.9394 2.21289 13.7684 3.11514 12.5289 3.5193C12.1865 4.06 11.6445 4.42188 11 4.42188C10.3555 4.42188 9.81359 4.06 9.47108 3.51925C8.23156 3.11519 7.06058 2.21289 6.1273 0.811328ZM6.92188 14.1719V18.6719H0.171875V22.3281H21.8281V20.9219H15.0781V14.1719H6.92188Z" fill="#C3C3C3"/>
</svg>
