<svg width="20" height="20" viewBox="0 0 20 20" fill="none" xmlns="http://www.w3.org/2000/svg">
<g clip-path="url(#clip0_326_3231)">
<path d="M5.31458 10.2847C4.54767 10.3696 3.94922 11.0214 3.94922 11.8106C3.94922 12.6575 4.638 13.3463 5.48471 13.3463H8.65289C9.4996 13.3463 10.1884 12.6575 10.1884 11.8106C10.1884 11.0214 9.59009 10.3696 8.82318 10.2847C8.67883 9.44702 7.94717 8.80768 7.06888 8.80768C6.19073 8.80768 5.45892 9.44702 5.31458 10.2847ZM7.06888 9.43268C7.70578 9.43268 8.22397 9.95087 8.22397 10.5878C8.22397 10.7605 8.36389 10.9003 8.53647 10.9003H8.65289C9.15491 10.9003 9.56339 11.3086 9.56339 11.8106C9.56339 12.3126 9.15491 12.7213 8.65289 12.7213H5.48471C4.9827 12.7213 4.57422 12.3126 4.57422 11.8106C4.57422 11.3086 4.9827 10.9003 5.48471 10.9003H5.60129C5.77386 10.9003 5.91379 10.7605 5.91379 10.5878C5.91379 9.95087 6.43198 9.43268 7.06888 9.43268Z" fill="#1E518D"/>
<path d="M3.64807 10.4297C4.30801 10.4297 4.84482 9.89288 4.84482 9.23309C4.84482 8.573 4.30801 8.03619 3.64807 8.03619C2.98813 8.03619 2.45117 8.573 2.45117 9.23309C2.45117 9.89288 2.98813 10.4297 3.64807 10.4297ZM3.64807 8.66119C3.96332 8.66119 4.21982 8.91785 4.21982 9.23309C4.21982 9.54834 3.96332 9.80469 3.64807 9.80469C3.33267 9.80469 3.07617 9.54834 3.07617 9.23309C3.07617 8.91785 3.33267 8.66119 3.64807 8.66119Z" fill="#1E518D"/>
<path d="M5.71936 8.35846C6.3793 8.35846 6.91611 7.82166 6.91611 7.16156C6.91611 6.50177 6.3793 5.96497 5.71936 5.96497C5.05942 5.96497 4.52246 6.50177 4.52246 7.16156C4.52246 7.82166 5.05942 8.35846 5.71936 8.35846ZM5.71936 6.58997C6.03461 6.58997 6.29111 6.84631 6.29111 7.16156C6.29111 7.47681 6.03461 7.73346 5.71936 7.73346C5.40396 7.73346 5.14746 7.47681 5.14746 7.16156C5.14746 6.84631 5.40396 6.58997 5.71936 6.58997Z" fill="#1E518D"/>
<path d="M8.4342 8.35846C9.09415 8.35846 9.63095 7.82166 9.63095 7.16156C9.63095 6.50177 9.09415 5.96497 8.4342 5.96497C7.77426 5.96497 7.2373 6.50177 7.2373 7.16156C7.2373 7.82166 7.77426 8.35846 8.4342 8.35846ZM8.4342 6.58997C8.74945 6.58997 9.00595 6.84631 9.00595 7.16156C9.00595 7.47681 8.74945 7.73346 8.4342 7.73346C8.1188 7.73346 7.8623 7.47681 7.8623 7.16156C7.8623 6.84631 8.1188 6.58997 8.4342 6.58997Z" fill="#1E518D"/>
<path d="M10.527 10.451C11.1869 10.451 11.7237 9.91425 11.7237 9.25446C11.7237 8.59436 11.1869 8.05756 10.527 8.05756C9.86703 8.05756 9.33008 8.59436 9.33008 9.25446C9.33008 9.91425 9.86703 10.451 10.527 10.451ZM10.527 8.68256C10.8422 8.68256 11.0987 8.93921 11.0987 9.25446C11.0987 9.5697 10.8422 9.82605 10.527 9.82605C10.2116 9.82605 9.95508 9.5697 9.95508 9.25446C9.95508 8.93921 10.2116 8.68256 10.527 8.68256Z" fill="#1E518D"/>
<path d="M2.67181 19.3811H7.50626H19.0625C19.166 19.3811 19.2628 19.3298 19.321 19.2441C19.3791 19.1586 19.3912 19.0497 19.353 18.9536L18.1125 15.8224C18.0653 15.7031 17.9501 15.625 17.822 15.625H17.4093C17.3849 15.4295 17.31 15.2413 17.1768 15.0916C17.0142 14.91 16.7902 14.8007 16.5529 14.7751C16.5352 14.4055 16.3367 14.0643 16.0069 13.8992C15.8115 13.8055 15.5913 13.7839 15.3778 13.829C15.2386 13.4262 14.9026 13.1104 14.482 13.0276C14.1562 12.9637 13.8206 13.0549 13.55 13.2559V4.94049C13.55 3.84161 12.6788 2.94464 11.591 2.89812V1.36047C11.591 0.952148 11.2587 0.619812 10.8501 0.619812H3.32581C2.91733 0.619812 2.58499 0.952148 2.58499 1.36047V2.89808C1.49673 2.94407 0.625 3.84125 0.625 4.94049V17.3343C0.625 18.4628 1.54312 19.3811 2.67181 19.3811ZM18.6026 18.7561H7.96585L8.9563 16.25H13.2375H17.6097L18.6026 18.7561ZM13.7727 13.9008C13.9137 13.7039 14.1512 13.5995 14.3616 13.6411C14.6342 13.6948 14.8322 13.9627 14.8221 14.2645C14.8181 14.3842 14.8828 14.4955 14.9887 14.5514C15.0945 14.6072 15.2232 14.5978 15.3195 14.5267C15.4515 14.4296 15.6152 14.4043 15.7321 14.4608C15.8844 14.537 15.9894 14.7714 15.8932 15.0177C15.8481 15.1334 15.8759 15.2649 15.9639 15.3528C16.0521 15.4404 16.1838 15.4681 16.2993 15.4218C16.4444 15.3644 16.6139 15.4001 16.7105 15.5078C16.7408 15.5419 16.7612 15.5825 16.7761 15.625H13.2375H9.78662C9.86626 15.438 10.0021 15.2383 10.2399 15.0974C10.7506 14.7971 11.2813 15.0278 11.34 15.0549C11.4415 15.1028 11.5602 15.0903 11.6518 15.0262C11.7433 14.9619 11.7932 14.8523 11.7828 14.7409C11.7824 14.7357 11.7395 14.2267 12.0966 13.9334C12.3617 13.7192 12.7583 13.6813 13.1151 13.8406C13.1157 13.8409 13.1163 13.8411 13.1169 13.8413C13.1863 13.8707 13.2578 13.913 13.3292 13.9673C13.3965 14.0186 13.4816 14.0393 13.5651 14.028C13.6487 14.0152 13.7236 13.9694 13.7727 13.9008ZM3.32581 1.24481H10.8501C10.9151 1.24481 10.966 1.29547 10.966 1.36047V2.89368H3.20999V1.36047C3.20999 1.29547 3.2608 1.24481 3.32581 1.24481ZM1.25 4.94049C1.25 4.15649 1.88782 3.51868 2.67181 3.51868H2.89446C2.89553 3.5187 2.89642 3.51929 2.89749 3.51929C2.89856 3.51929 2.89946 3.5187 2.90052 3.51868H11.2755C11.2766 3.5187 11.2775 3.51929 11.2785 3.51929C11.2796 3.51929 11.2805 3.5187 11.2816 3.51868H11.5031C12.2871 3.51868 12.925 4.15649 12.925 4.94049V13.1358C12.4848 13.0654 12.0425 13.1734 11.7017 13.4491C11.3721 13.7198 11.2393 14.0768 11.1876 14.3567C10.8609 14.2917 10.392 14.2819 9.92172 14.5593C9.42926 14.8514 9.21698 15.3027 9.12561 15.625H8.74374C8.61542 15.625 8.50021 15.7034 8.45306 15.8228L7.2937 18.7561H2.67181C1.88782 18.7561 1.25 18.1183 1.25 17.3343V4.94049Z" fill="#1E518D"/>
<path d="M2.45996 15.126H6.49728C6.66986 15.126 6.80978 14.9863 6.80978 14.8135C6.80978 14.6408 6.66986 14.501 6.49728 14.501H2.45996C2.28738 14.501 2.14746 14.6408 2.14746 14.8135C2.14746 14.9863 2.28738 15.126 2.45996 15.126Z" fill="#1E518D"/>
<path d="M2.45996 16.3358H7.26846C7.44104 16.3358 7.58096 16.196 7.58096 16.0233C7.58096 15.8505 7.44104 15.7108 7.26846 15.7108H2.45996C2.28738 15.7108 2.14746 15.8505 2.14746 16.0233C2.14746 16.196 2.28738 16.3358 2.45996 16.3358Z" fill="#1E518D"/>
<path d="M2.45996 17.5455H4.38028C4.55286 17.5455 4.69278 17.4057 4.69278 17.233C4.69278 17.0602 4.55286 16.9205 4.38028 16.9205H2.45996C2.28738 16.9205 2.14746 17.0602 2.14746 17.233C2.14746 17.4057 2.28738 17.5455 2.45996 17.5455Z" fill="#1E518D"/>
</g>
<defs>
<clipPath id="clip0_326_3231">
<rect width="20" height="20" fill="white"/>
</clipPath>
</defs>
</svg>
