<svg width="20" height="20" viewBox="0 0 20 20" fill="none" xmlns="http://www.w3.org/2000/svg">
<g clip-path="url(#clip0_326_3266)">
<path d="M15.9998 8.34246V5.66688C16.552 5.66688 16.9997 5.21914 16.9997 4.6669C16.9997 4.11466 16.552 3.66691 15.9998 3.66691H11.9998C11.4476 3.66691 10.9998 4.11466 10.9998 4.6669C10.9998 5.21914 11.4476 5.66688 11.9998 5.66688V8.34279C10.1141 9.00928 8.68476 10.5719 8.18884 12.5094L7.99988 12.2304V9.33349C8.55211 9.33349 8.99986 8.88575 8.99986 8.33351C8.99986 7.78127 8.55211 7.33352 7.99988 7.33352H4.99992V2.00027C5.55216 2.00027 5.99991 1.55253 5.99991 1.00029C5.99991 0.448052 5.55216 0.000305176 4.99992 0.000305176H0.999984C0.447747 0.000305176 0 0.448052 0 1.00029C0 1.55253 0.447747 2.00027 0.999984 2.00027V16.6304L0.478996 17.3944C0.130857 17.9048 0.0937486 18.5658 0.382481 19.112C0.671051 19.6582 1.2381 20 1.85593 20H10.1439C10.632 19.9995 11.0952 19.7843 11.4105 19.4116C13.4129 20.3698 15.7807 20.144 17.566 18.8247C19.3513 17.5054 20.2622 15.3082 19.9341 13.1127C19.6061 10.9173 18.0927 9.08236 15.9998 8.34246ZM11.6665 4.6669C11.6665 4.48282 11.8157 4.33357 11.9998 4.33357H15.9998C16.1838 4.33357 16.3331 4.48282 16.3331 4.6669C16.3331 4.85098 16.1838 5.00023 15.9998 5.00023H11.9998C11.8157 5.00023 11.6665 4.85098 11.6665 4.6669ZM12.4331 8.90218C12.5722 8.8584 12.6668 8.72934 12.6665 8.5835V5.66688H15.3331V8.5835C15.3331 8.72982 15.4285 8.85905 15.5684 8.90218C17.5246 9.49723 18.9642 11.1642 19.2684 13.1861C19.0964 13.2405 18.9313 13.2968 18.7751 13.3528C18.0349 13.6493 17.2419 13.7922 16.4447 13.7727C15.6475 13.7921 14.8547 13.6492 14.1145 13.3528C13.3007 13.0292 12.4303 12.8728 11.5548 12.8928C10.681 12.8735 9.81202 13.0299 8.99986 13.3531C8.93817 13.3754 8.87356 13.3967 8.8109 13.4197L8.71959 13.2864C8.99514 11.2252 10.4455 9.51318 12.4331 8.90218ZM7.39116 12.5211L9.28192 15.294C8.76419 15.1081 8.21651 15.0198 7.66655 15.0334C7.05783 15.0194 6.4527 15.1282 5.88695 15.3531C5.39347 15.551 4.86483 15.6464 4.33327 15.6334C3.80381 15.6459 3.27729 15.5515 2.78528 15.3557C2.75696 15.3454 2.72636 15.335 2.6969 15.3248L4.60865 12.5211C4.64641 12.4658 4.66659 12.4003 4.66659 12.3334V9.33349H7.33322V12.3334C7.33322 12.4003 7.3534 12.4658 7.39116 12.5211ZM8.3332 8.33351C8.3332 8.51759 8.18395 8.66684 7.99988 8.66684H3.99994C3.81586 8.66684 3.66661 8.51759 3.66661 8.33351C3.66661 8.14943 3.81586 8.00018 3.99994 8.00018H7.99988C8.18395 8.00018 8.3332 8.14943 8.3332 8.33351ZM0.666656 1.00029C0.666656 0.81621 0.815905 0.666961 0.999984 0.666961H4.99992C5.184 0.666961 5.33325 0.81621 5.33325 1.00029C5.33325 1.18437 5.184 1.33362 4.99992 1.33362H0.999984C0.815905 1.33362 0.666656 1.18437 0.666656 1.00029ZM4.33327 2.00027V3.33359H3.33328V4.00024H4.33327V5.3246H3.33328V5.99126H4.33327V6.39116C4.29665 6.37993 4.26068 6.36788 4.22324 6.35454C4.01052 6.2712 3.78347 6.23068 3.55496 6.23491C3.32628 6.23068 3.09891 6.27137 2.88602 6.35454C2.7454 6.41118 2.59469 6.43803 2.44332 6.43347C2.29147 6.43787 2.14059 6.41052 1.99997 6.35323C1.8919 6.31271 1.78025 6.28227 1.66664 6.26225V2.00027H4.33327ZM1.66664 6.94421C1.70294 6.95511 1.73825 6.96716 1.77536 6.9805C1.9876 7.06351 2.214 7.1042 2.44202 7.10013C2.67037 7.10452 2.89758 7.06383 3.1103 6.9805C3.25093 6.92337 3.4018 6.89603 3.55366 6.90026C3.70518 6.89603 3.8559 6.92337 3.99619 6.9805C4.10557 7.02119 4.21836 7.05163 4.33327 7.07181V7.33352H3.99994C3.4477 7.33352 2.99995 7.78127 2.99995 8.33351C2.99995 8.88575 3.4477 9.33349 3.99994 9.33349V12.2304L1.66664 15.6527V6.94421ZM11.0278 18.8C10.8573 19.1302 10.5155 19.3364 10.1439 19.3333H1.85593C1.48533 19.3332 1.14516 19.1283 0.97199 18.8005C0.798978 18.4728 0.821276 18.0762 1.02993 17.77L2.30758 15.8961C2.3927 15.9237 2.47604 15.953 2.56132 15.9835C3.12495 16.2059 3.72748 16.3137 4.33327 16.3C4.94198 16.314 5.54711 16.2053 6.11286 15.9804C6.60634 15.7824 7.13498 15.6871 7.66655 15.7001C8.19893 15.6872 8.72854 15.7826 9.22284 15.9807C9.44061 16.0627 9.66326 16.1314 9.88949 16.1861L10.9696 17.77C11.1816 18.0749 11.2043 18.4732 11.0278 18.8ZM13.9998 19.3333C13.2163 19.3328 12.4425 19.1602 11.7332 18.8273C11.886 18.3423 11.8081 17.8142 11.5215 17.3941L9.19989 13.9893L9.22544 13.9804C9.96664 13.6832 10.7606 13.5403 11.5587 13.5602C12.3571 13.5408 13.1508 13.6838 13.892 13.9804C14.7042 14.3031 15.5728 14.4596 16.4464 14.44C17.3207 14.4599 18.1901 14.3036 19.0026 13.9804C19.112 13.941 19.2191 13.9028 19.3277 13.8661C19.3277 13.9107 19.333 13.955 19.333 13.9994C19.3299 16.9437 16.9441 19.3299 13.9998 19.3333Z" fill="#1E518D"/>
<path d="M15.666 12.6668C16.2182 12.6668 16.666 12.219 16.666 11.6668C16.666 11.1146 16.2182 10.6668 15.666 10.6668C15.1138 10.6668 14.666 11.1146 14.666 11.6668C14.666 12.219 15.1138 12.6668 15.666 12.6668ZM15.666 11.3335C15.8501 11.3335 15.9993 11.4827 15.9993 11.6668C15.9993 11.8509 15.8501 12.0001 15.666 12.0001C15.4819 12.0001 15.3327 11.8509 15.3327 11.6668C15.3327 11.4827 15.4819 11.3335 15.666 11.3335Z" fill="#1E518D"/>
<path d="M6.99998 6.33356C7.55222 6.33356 7.99997 5.88581 7.99997 5.33357C7.99997 4.78133 7.55222 4.33359 6.99998 4.33359C6.44775 4.33359 6 4.78133 6 5.33357C6 5.88581 6.44775 6.33356 6.99998 6.33356ZM6.99998 5.00024C7.18406 5.00024 7.33331 5.14949 7.33331 5.33357C7.33331 5.51765 7.18406 5.6669 6.99998 5.6669C6.81591 5.6669 6.66666 5.51765 6.66666 5.33357C6.66666 5.14949 6.81591 5.00024 6.99998 5.00024Z" fill="#1E518D"/>
<path d="M12.0968 10.9035C12.2099 11.0189 12.3888 11.0381 12.5238 10.9492C12.6588 10.8605 12.712 10.6886 12.651 10.5391C12.5899 10.3895 12.4316 10.304 12.273 10.3351C12.1145 10.3664 12.0001 10.5052 12.0001 10.6668C11.999 10.7106 12.0081 10.7539 12.0268 10.7934C12.0437 10.8338 12.0673 10.8711 12.0968 10.9035Z" fill="#1E518D"/>
<path d="M12.7627 15.4301C12.6333 15.5605 12.6338 15.7711 12.764 15.9008C12.8941 16.0305 13.1047 16.0305 13.2347 15.9008C13.3649 15.7711 13.3654 15.5605 13.236 15.4301C13.1024 15.3067 12.8963 15.3067 12.7627 15.4301Z" fill="#1E518D"/>
<path d="M16.64 16.8734C16.6325 16.8523 16.6226 16.8321 16.61 16.8134L16.57 16.7634C16.4746 16.6672 16.3306 16.6384 16.2056 16.6903C16.0804 16.7423 15.9992 16.8646 16 17.0001C16.0005 17.0437 16.0096 17.0866 16.0267 17.1267C16.0436 17.167 16.0672 17.2043 16.0967 17.2367L16.1463 17.2767C16.165 17.2893 16.1854 17.2994 16.2067 17.3067C16.2256 17.3163 16.2458 17.3231 16.2666 17.3267C16.2887 17.3305 16.311 17.3327 16.3333 17.3334C16.3556 17.3327 16.3779 17.3306 16.4001 17.3267C16.4209 17.323 16.4411 17.3163 16.46 17.3067C16.4813 17.2994 16.5015 17.2893 16.52 17.2767L16.57 17.2367C16.5994 17.2043 16.623 17.167 16.64 17.1267C16.6571 17.0866 16.6662 17.0437 16.6667 17.0001C16.6662 16.9776 16.6637 16.9553 16.6597 16.9333C16.6562 16.9125 16.6497 16.8922 16.64 16.8734Z" fill="#1E518D"/>
<path d="M6.85334 13.7234C6.83479 13.7109 6.81461 13.7008 6.79329 13.6935C6.77343 13.6834 6.75178 13.6765 6.72965 13.6734C6.62093 13.6516 6.50846 13.6853 6.42969 13.7635C6.30078 13.8948 6.30078 14.1052 6.42969 14.2368L6.47933 14.2768C6.49804 14.2893 6.51839 14.2994 6.53971 14.3067C6.55859 14.3163 6.57877 14.3232 6.59961 14.3268C6.62174 14.3305 6.6442 14.3328 6.66666 14.3334C6.68782 14.3329 6.70882 14.3307 6.72965 14.3268C6.75178 14.3237 6.77343 14.3168 6.79329 14.3067C6.81461 14.2994 6.83479 14.2893 6.85334 14.2768L6.90331 14.2368C7.03222 14.1052 7.03222 13.8948 6.90331 13.7635L6.85334 13.7234Z" fill="#1E518D"/>
<path d="M5.90308 11.7635C5.88713 11.7491 5.87053 11.7358 5.85311 11.7234C5.83456 11.7109 5.81438 11.7008 5.79306 11.6935C5.7732 11.6834 5.75155 11.6766 5.72942 11.6735C5.68678 11.6634 5.64234 11.6634 5.5997 11.6735C5.57887 11.677 5.55869 11.6839 5.53981 11.6935C5.51848 11.7008 5.49814 11.7109 5.47942 11.7234C5.46217 11.7358 5.44557 11.7491 5.42978 11.7635C5.40032 11.7959 5.37672 11.8331 5.3598 11.8735C5.34108 11.913 5.33196 11.9563 5.3331 12.0001C5.33424 12.0883 5.36875 12.173 5.42978 12.2368L5.47942 12.2768C5.49814 12.2893 5.51848 12.2994 5.53981 12.3068C5.55869 12.3164 5.57887 12.3232 5.5997 12.3268C5.62184 12.3305 5.64413 12.3328 5.66643 12.3334C5.68759 12.333 5.70859 12.3307 5.72942 12.3268C5.75155 12.3237 5.7732 12.3168 5.79306 12.3068C5.81438 12.2994 5.83456 12.2893 5.85311 12.2768L5.90308 12.2368C5.96395 12.1728 5.99846 12.0883 5.99976 12.0001C5.99927 11.9565 5.99016 11.9135 5.97307 11.8735C5.95614 11.8331 5.93254 11.7959 5.90308 11.7635Z" fill="#1E518D"/>
<path d="M3.09677 11.4302C3.03574 11.494 3.00123 11.5786 3.0001 11.6668C2.99896 11.7106 3.00807 11.7539 3.02679 11.7934C3.04371 11.8338 3.06731 11.8711 3.09677 11.9035C3.22714 12.0329 3.43775 12.0322 3.56747 11.9022C3.69719 11.7721 3.69719 11.5615 3.56747 11.4315C3.43775 11.3013 3.22714 11.3008 3.09677 11.4302Z" fill="#1E518D"/>
<path d="M2.56672 9.43017C2.43424 9.3068 2.229 9.3068 2.09668 9.43017C1.96777 9.56152 1.96777 9.77197 2.09668 9.90347L2.14632 9.94351C2.16504 9.95605 2.18538 9.96614 2.2067 9.97346C2.22558 9.98306 2.24576 9.9899 2.2666 9.99348C2.28873 9.99739 2.31103 9.9995 2.33333 10.0002C2.51692 9.99885 2.66535 9.85042 2.66666 9.66682C2.66617 9.62321 2.65705 9.58024 2.63996 9.5402C2.62385 9.49853 2.59895 9.46094 2.56672 9.43017Z" fill="#1E518D"/>
<path d="M14.666 2.33362V3.00027H15.3327V2.33362C15.3327 2.14954 15.4819 2.00029 15.666 2.00029H16.9993C17.5515 2.00029 17.9993 1.55254 17.9993 1.00031H17.3326C17.3326 1.18438 17.1834 1.33363 16.9993 1.33363H15.666C15.1138 1.33363 14.666 1.78138 14.666 2.33362Z" fill="#1E518D"/>
<path d="M13.3327 1.33362C13.3327 1.14954 13.4819 1.00029 13.666 1.00029H14.9993C15.5515 1.00029 15.9993 0.552543 15.9993 0.000305176H15.3326C15.3326 0.184384 15.1834 0.333633 14.9993 0.333633H13.666C13.1138 0.333633 12.666 0.78138 12.666 1.33362V2.00027H13.3327V1.33362Z" fill="#1E518D"/>
</g>
<defs>
<clipPath id="clip0_326_3266">
<rect width="20" height="20" fill="white"/>
</clipPath>
</defs>
</svg>
