<svg width="20" height="20" viewBox="0 0 20 20" fill="none" xmlns="http://www.w3.org/2000/svg">
<g clip-path="url(#clip0_326_3279)">
<path fill-rule="evenodd" clip-rule="evenodd" d="M9.88147 16.0728L10.1145 17.9714C10.1244 18.0519 10.1027 18.1331 10.054 18.198L9.18692 19.3528C9.12766 19.4318 9.03472 19.4782 8.93602 19.4782H0.588133C0.500054 19.4782 0.416054 19.4412 0.356643 19.3762C0.297192 19.3112 0.267819 19.2242 0.275662 19.1365L1.08296 10.1025C1.09743 9.94073 1.233 9.81673 1.39547 9.81673H2.74484V9.7781C2.74484 8.75544 3.58182 7.91846 4.60449 7.91846C5.62723 7.91846 6.46335 8.7554 6.46335 9.7781V9.81673H8.83582C8.99429 9.81673 9.1279 9.93493 9.14723 10.0922L9.80441 15.4454H15.5968C16.2087 15.4454 16.7229 15.0241 16.8426 14.4238L16.8426 14.4236L17.8324 9.4772H6.88335C6.71017 9.4772 6.56962 9.33661 6.56962 9.16348C6.56962 8.99034 6.71017 8.84975 6.88335 8.84975H18.9364C19.0255 8.84975 19.0979 8.77614 19.0979 8.68708V7.87516C19.0979 7.7863 19.0253 7.71367 18.9364 7.71367H4.33872C4.16554 7.71367 4.025 7.57308 4.025 7.39995C4.025 7.22681 4.16554 7.08622 4.33872 7.08622H5.12123V4.27053C5.12123 3.76395 5.51558 3.34877 6.01382 3.31548V2.97806C6.01382 2.58673 6.31237 2.26453 6.69398 2.22712V1.14924H5.46123C5.28805 1.14924 5.14751 1.00869 5.14751 0.835515C5.14751 0.662378 5.28805 0.52179 5.46123 0.52179H8.05253C8.22566 0.52179 8.36625 0.662378 8.36625 0.835515V2.22485C8.76123 2.24877 9.07468 2.57712 9.07468 2.97806V3.31332H9.08123C9.11355 3.31332 9.14547 3.31493 9.17692 3.31806C9.33123 2.81242 9.52002 2.36752 9.73449 2.00214C10.1917 1.22312 10.7798 0.79528 11.3897 0.79528C11.9996 0.79528 12.5877 1.22312 13.045 2.00214C13.2686 2.38328 13.4644 2.85089 13.6223 3.38375C13.7104 3.20869 13.8043 3.04477 13.9034 2.89324C13.7024 2.7765 13.5672 2.55889 13.5672 2.30995V1.5894C13.5672 1.2174 13.8692 0.915358 14.2412 0.915358H17.4046C17.7766 0.915358 18.0786 1.2174 18.0786 1.5894V2.30995C18.0786 2.55908 17.9431 2.77685 17.7419 2.89352C18.1044 3.45014 18.3983 4.17477 18.5888 5.0072C18.5924 5.01767 18.5954 5.02842 18.5978 5.0394C18.7386 5.66865 18.8205 6.35991 18.829 7.08622H18.9364C19.3706 7.08622 19.7254 7.44104 19.7254 7.87516V8.68708C19.7254 9.12097 19.3704 9.4772 18.9364 9.4772H18.4723L17.4579 14.5465C17.2791 15.4434 16.511 16.0728 15.5968 16.0728H9.88147ZM17.4511 1.5894C17.4511 1.56367 17.4303 1.54281 17.4046 1.54281H14.2412C14.2155 1.54281 14.1946 1.56367 14.1946 1.5894V2.30995C14.1946 2.33563 14.2155 2.3565 14.2412 2.3565H17.4046C17.4303 2.3565 17.4511 2.33563 17.4511 2.30995V1.5894ZM9.36943 7.08622H13.41C13.4174 6.9125 13.4212 6.73634 13.4212 6.55814C13.4212 4.81955 13.0648 3.27544 12.5038 2.31975C12.1846 1.77583 11.8156 1.42273 11.3897 1.42273C10.9639 1.42273 10.5949 1.77583 10.2756 2.31975C9.71464 3.27544 9.35825 4.81955 9.35825 6.55814C9.35825 6.73634 9.36202 6.9125 9.36943 7.08622ZM12.4419 4.55304C12.6132 4.52799 12.7726 4.64673 12.7977 4.81806C12.8228 4.9894 12.704 5.14885 12.5327 5.17391C12.1278 5.23312 11.8395 5.26485 11.3897 5.26485C10.9479 5.26485 10.6575 5.24324 10.2587 5.18599C10.0873 5.16136 9.96813 5.00222 9.99272 4.83085C10.0173 4.65944 10.1764 4.5403 10.3479 4.56489C10.7152 4.61763 10.9827 4.6374 11.3897 4.6374C11.8037 4.6374 12.0691 4.60755 12.4419 4.55304ZM12.4419 6.20387C12.6132 6.17881 12.7726 6.29759 12.7977 6.46889C12.8228 6.64022 12.704 6.79967 12.5327 6.82473C12.1278 6.88395 11.8395 6.91567 11.3897 6.91567C10.9479 6.91567 10.6575 6.89406 10.2587 6.83681C10.0873 6.81218 9.96813 6.65304 9.99272 6.48167C10.0173 6.31026 10.1764 6.19112 10.3479 6.21571C10.7152 6.26846 10.9827 6.28822 11.3897 6.28822C11.8037 6.28822 12.0691 6.25838 12.4419 6.20387ZM1.02484 17.8023L0.931152 18.8507H8.59496L8.50715 17.8023H1.02484ZM14.038 7.08622H18.2015C18.1942 6.50171 18.1366 5.94148 18.0365 5.42163H13.9984C14.0313 5.78873 14.0486 6.16881 14.0486 6.55814C14.0486 6.73622 14.045 6.91238 14.038 7.08622ZM6.64127 3.31332H8.44723V2.97806C8.44723 2.90791 8.39025 2.85093 8.32006 2.85093H6.76841C6.69825 2.85093 6.64127 2.90791 6.64127 2.97806V3.31332ZM9.1799 18.3172L9.47637 17.9224L8.55825 10.4442H8.52072L9.1799 18.3172ZM5.8359 9.81673V9.7781C5.8359 9.10053 5.28209 8.54591 4.60449 8.54591C3.92688 8.54591 3.37229 9.1005 3.37229 9.7781V9.81673H5.8359ZM5.74868 7.08622H8.74143C8.73441 6.91238 8.7308 6.73622 8.7308 6.55814C8.7308 5.61348 8.83288 4.72316 9.01166 3.94077H6.07841C5.89645 3.94077 5.74868 4.08853 5.74868 4.27053V7.08622ZM7.32143 2.22348H7.7388V1.14924H7.32143V2.22348ZM13.867 4.43042C13.8882 4.54971 13.9077 4.67101 13.9254 4.79418H17.8923C17.6891 4.05916 17.3949 3.43591 17.0361 2.98395H14.6097C14.3129 3.3585 14.0609 3.85289 13.867 4.43042ZM2.74484 10.4442H1.68237L1.08092 17.1749H8.45464L7.89107 10.4442H6.46335V11.0717C6.66386 11.1827 6.80021 11.3961 6.80021 11.6408C6.80021 11.9992 6.50751 12.2919 6.14911 12.2919C5.79068 12.2919 5.49907 11.9992 5.49907 11.6408C5.49907 11.3958 5.63527 11.1821 5.8359 11.0713V10.4442H3.37229V11.0714C3.5726 11.1821 3.70853 11.3956 3.70853 11.6401C3.70853 11.9983 3.41719 12.2907 3.05907 12.2907C2.701 12.2907 2.4086 11.9983 2.4086 11.6401C2.4086 11.3959 2.54468 11.1827 2.74484 11.0718V10.4442ZM10.2963 10.1818C10.7241 10.1518 11.0979 10.4779 11.1279 10.9038L11.3237 13.6903C11.3551 14.1181 11.0296 14.4923 10.6016 14.5223C10.1738 14.5522 9.80006 14.2262 9.77005 13.8004L9.57304 11.0136V11.0134C9.54307 10.5857 9.8686 10.2118 10.2963 10.1818ZM10.3402 10.8078C10.2568 10.8136 10.1931 10.8862 10.199 10.9695L10.3959 13.7562C10.4018 13.839 10.4746 13.9021 10.5578 13.8963C10.6405 13.8905 10.7041 13.8187 10.6979 13.736C10.6979 13.7355 10.6978 13.735 10.6978 13.7346L10.502 10.9479C10.4961 10.8651 10.4233 10.8019 10.3402 10.8078ZM12.9765 10.1818C13.4042 10.2118 13.7297 10.5857 13.6997 11.0134V11.0136L13.5027 13.8003C13.4727 14.2262 13.099 14.5522 12.6711 14.5223C12.2432 14.4923 11.9177 14.1181 11.9491 13.6903L12.1449 10.9038C12.1749 10.4779 12.5486 10.1518 12.9765 10.1818ZM12.9326 10.8078C12.8495 10.8019 12.7766 10.8651 12.7708 10.9479L12.575 13.7346C12.575 13.735 12.5749 13.7355 12.5749 13.736C12.5687 13.8187 12.6323 13.8905 12.715 13.8963C12.7982 13.9021 12.871 13.839 12.8768 13.7562L13.0738 10.9695C13.0797 10.8862 13.0159 10.8136 12.9326 10.8078ZM15.5226 10.2199C15.9458 10.2898 16.2336 10.6908 16.1657 11.114C16.1657 11.1143 16.1656 11.1146 16.1656 11.1149L15.7154 13.8706L15.7153 13.8712C15.6455 14.2944 15.2444 14.5821 14.8212 14.5143C14.8208 14.5142 14.8203 14.5141 14.8198 14.5141C14.3966 14.4442 14.1088 14.0432 14.1767 13.6199C14.1767 13.6196 14.1768 13.6193 14.1768 13.619L14.627 10.8633L14.627 10.8628C14.697 10.4392 15.099 10.1499 15.5226 10.2199ZM15.4204 10.8389C15.3378 10.8253 15.2598 10.8823 15.2461 10.9649C15.2461 10.9649 14.7962 13.7195 14.7961 13.7199C14.7832 13.8025 14.8389 13.8808 14.9217 13.8949C15.0043 13.9076 15.0826 13.8516 15.0963 13.769C15.0963 13.769 15.5462 11.0144 15.5463 11.014C15.5592 10.9312 15.5032 10.8526 15.4204 10.8389Z" fill="#1E518D"/>
</g>
<defs>
<clipPath id="clip0_326_3279">
<rect width="20" height="20" fill="white"/>
</clipPath>
</defs>
</svg>
