<svg width="20" height="20" viewBox="0 0 20 20" fill="none" xmlns="http://www.w3.org/2000/svg">
<g clip-path="url(#clip0_326_3287)">
<path d="M12.1469 10.638C13.9669 10.638 15.4476 9.15732 15.4476 7.33732C15.4476 5.51732 13.9669 4.03666 12.1469 4.03666C10.3269 4.03666 8.84626 5.51732 8.84626 7.33732C8.84626 9.15732 10.3269 10.638 12.1469 10.638ZM12.1469 4.58353C13.6654 4.58353 14.9008 5.81888 14.9008 7.33732C14.9008 8.85576 13.6654 10.0911 12.1469 10.0911C10.6284 10.0911 9.39314 8.85576 9.39314 7.33732C9.39314 5.81888 10.6285 4.58353 12.1469 4.58353ZM10.2903 8.22205H11.2623V9.194C11.2623 9.34502 11.3847 9.46744 11.5357 9.46744H12.7582C12.9092 9.46744 13.0317 9.34502 13.0317 9.194V8.22205H14.0036C14.1546 8.22205 14.277 8.09963 14.277 7.94861V6.72611C14.277 6.5751 14.1546 6.45267 14.0036 6.45267H13.0317V5.48068C13.0317 5.32967 12.9092 5.20724 12.7582 5.20724H11.5357C11.3847 5.20724 11.2623 5.32967 11.2623 5.48068V6.45267H10.2903C10.1393 6.45267 10.0168 6.5751 10.0168 6.72611V7.94861C10.0168 8.09963 10.1393 8.22205 10.2903 8.22205ZM10.5637 6.99955H11.5357C11.6867 6.99955 11.8092 6.87713 11.8092 6.72611V5.75412H12.4848V6.72611C12.4848 6.87713 12.6072 6.99955 12.7582 6.99955H13.7302V7.67517H12.7582C12.6072 7.67517 12.4848 7.7976 12.4848 7.94861V8.92056H11.8092V7.94861C11.8092 7.7976 11.6867 7.67517 11.5357 7.67517H10.5637V6.99955ZM19.5023 14.7319C18.9447 15.4649 13.6476 18.283 13.5942 18.3113C13.5922 18.3123 13.5902 18.3134 13.5883 18.3144C12.4156 18.8995 11.3001 19.1135 9.97158 19.0079C9.57486 18.9764 9.17185 18.9293 8.74521 18.8795C6.93744 18.6683 4.88849 18.4288 2.29357 19.2721C2.26552 19.2812 2.23701 19.2856 2.209 19.2856C2.09372 19.2856 1.98658 19.2121 1.949 19.0965C1.90232 18.9529 1.98091 18.7987 2.12454 18.752C4.83314 17.8719 6.94521 18.1186 8.80861 18.3363C9.23009 18.3856 9.62822 18.4321 10.0148 18.4628C11.2376 18.5597 12.2636 18.3637 13.3411 17.8265C15.5331 16.6652 18.7407 14.8297 19.067 14.4008C19.3884 13.9782 19.3224 13.6226 19.1534 13.4307C18.9823 13.2365 18.6096 13.1098 18.1218 13.3914C17.1846 13.9324 14.9554 15.0122 13.3514 15.5986C13.3157 15.725 13.2636 15.8485 13.1945 15.9648C12.8243 16.5878 11.8563 16.7403 10.9982 16.7403C10.8815 16.7403 10.7669 16.7375 10.656 16.7326C9.66615 16.6895 8.56544 16.4592 8.03876 16.185C7.90482 16.1153 7.85271 15.9502 7.92243 15.8163C7.99216 15.6823 8.15732 15.6301 8.29122 15.6999C8.67974 15.9021 9.64892 16.1413 10.6798 16.1863C11.746 16.2328 12.5104 16.0456 12.7244 15.6854C12.8854 15.4144 12.905 15.0618 12.7719 14.8279C12.6576 14.6271 12.4469 14.5253 12.1457 14.5253C10.1124 14.5253 8.70619 13.9606 7.5763 13.507C6.38052 13.0269 5.51654 12.6799 4.44892 13.1613C3.00099 13.8143 2.42665 14.013 1.55732 14.3137C1.26509 14.4147 0.933842 14.5293 0.523334 14.677C0.381186 14.7283 0.224623 14.6545 0.173451 14.5124C0.122318 14.3703 0.196068 14.2137 0.338139 14.1625C0.75185 14.0136 1.08482 13.8984 1.37857 13.7969C2.2338 13.501 2.7988 13.3056 4.22412 12.6629C5.50408 12.0857 6.5588 12.5091 7.78005 12.9995C8.92282 13.4583 10.2181 13.9784 12.1457 13.9784C12.6435 13.9784 13.0347 14.1841 13.2472 14.5576C13.3238 14.6921 13.3724 14.8422 13.3944 14.9988C14.946 14.4088 16.9724 13.4235 17.8484 12.9178C18.5728 12.4996 19.2318 12.6925 19.5638 13.0693C19.9559 13.5146 19.9318 14.1672 19.5022 14.7319L19.5023 14.7319ZM4.57814 6.90974C4.62056 6.93435 4.66794 6.94666 4.71533 6.94666C4.76271 6.94666 4.81009 6.93435 4.85251 6.90974C5.27072 6.66717 5.63974 6.42756 5.9649 6.19201V10.911C5.9649 11.4967 6.4415 11.9733 7.02732 11.9733H17.2666C17.8524 11.9733 18.329 11.4967 18.329 10.911V3.76365C18.329 3.17787 17.8524 2.70127 17.2666 2.70127H14.4534V2.28642C14.4534 1.78533 14.0457 1.37763 13.5447 1.37763H10.7492C10.2481 1.37763 9.84044 1.78533 9.84044 2.28642V2.70127H8.21185C8.20962 2.66693 8.20677 2.63314 8.20318 2.59998C8.10779 1.7124 7.54661 0.998493 6.77357 0.78115C6.05939 0.58029 5.32326 0.838025 4.71533 1.49006C4.10744 0.838025 3.37119 0.580407 2.65708 0.78115C1.884 0.998454 1.32287 1.7124 1.22747 2.59998C1.11829 3.61615 1.61091 5.18869 4.57814 6.90974ZM17.7821 3.76365V10.911C17.7821 11.1952 17.5509 11.4265 17.2666 11.4265H7.02732C6.74306 11.4265 6.51177 11.1952 6.51177 10.911V5.76584C7.63716 4.819 8.07345 3.95326 8.18544 3.24814H17.2666C17.5508 3.24814 17.7821 3.47939 17.7821 3.76365ZM10.3873 2.28642C10.3873 2.08689 10.5497 1.92451 10.7492 1.92451H13.5447C13.7442 1.92451 13.9065 2.08685 13.9065 2.28642V2.70127H10.3873V2.28642H10.3873ZM1.77122 2.65842C1.84259 1.99431 2.24841 1.46412 2.80509 1.30763C2.91158 1.27767 3.01947 1.26295 3.12787 1.26295C3.6047 1.26295 4.09013 1.54826 4.49853 2.07982C4.55029 2.1472 4.6304 2.18666 4.71536 2.18666C4.80033 2.18666 4.88044 2.14717 4.9322 2.07982C5.43341 1.42744 6.05068 1.14588 6.62564 1.3076C7.18232 1.46408 7.58814 1.99427 7.6595 2.65838C7.78654 3.8406 6.74224 5.15033 4.7154 6.35607C2.68857 5.15029 1.64423 3.8406 1.7713 2.65838L1.77122 2.65842Z" fill="#1E518D"/>
</g>
<defs>
<clipPath id="clip0_326_3287">
<rect width="20" height="20" fill="white"/>
</clipPath>
</defs>
</svg>
