<svg width="20" height="20" viewBox="0 0 20 20" fill="none" xmlns="http://www.w3.org/2000/svg">
<g clip-path="url(#clip0_326_3219)">
<path d="M18.4516 11.1133C17.4337 10.9412 16.462 10.5617 15.5971 9.99821C14.7321 9.43474 13.9922 8.6994 13.4234 7.83789L13.0273 7.23632V6.23828C13.028 5.06637 12.7748 3.90822 12.2851 2.84353C11.7954 1.77884 11.0808 0.832864 10.1906 0.0706993C10.1376 0.0251307 10.0699 7.62939e-05 10 7.62939e-05C9.93007 7.62939e-05 9.86244 0.0251307 9.80938 0.0706993C8.91917 0.832864 8.20463 1.77884 7.71494 2.84353C7.22524 3.90822 6.97201 5.06637 6.97266 6.23828V7.23632L6.57657 7.83789C6.00781 8.6994 5.26794 9.43474 4.40295 9.99821C3.53796 10.5617 2.56633 10.9412 1.54844 11.1133C1.11515 11.1849 0.72147 11.4084 0.437793 11.7437C0.154117 12.0789 -0.00106016 12.5042 5.45187e-06 12.9434V14.3555C5.45187e-06 14.4332 0.0308717 14.5077 0.085814 14.5626C0.140756 14.6176 0.215274 14.6484 0.292974 14.6484H6.97266V15.5273C6.97266 15.605 7.00353 15.6796 7.05847 15.7345C7.11341 15.7894 7.18793 15.8203 7.26563 15.8203H7.61133L7.36915 17.0312C7.36046 17.0738 7.36134 17.1178 7.37175 17.16C7.38215 17.2022 7.4018 17.2415 7.42928 17.2752C7.45676 17.3088 7.49139 17.3359 7.53064 17.3545C7.5699 17.3732 7.61281 17.3828 7.65626 17.3828H8.53555V17.4094C8.53555 18.4051 9.0043 19.3281 9.82461 19.9414C9.87525 19.9796 9.93696 20.0003 10.0004 20.0003C10.0638 20.0003 10.1255 19.9796 10.1762 19.9414C10.9965 19.3281 11.4652 18.4051 11.4652 17.4094C11.4652 17.4004 11.4652 17.3918 11.4652 17.3828H12.3438C12.3872 17.3828 12.4301 17.3732 12.4694 17.3545C12.5086 17.3359 12.5432 17.3088 12.5707 17.2752C12.5982 17.2415 12.6179 17.2022 12.6283 17.16C12.6387 17.1178 12.6396 17.0738 12.6309 17.0312L12.3887 15.8203H12.7344C12.8121 15.8203 12.8866 15.7894 12.9415 15.7345C12.9965 15.6796 13.0273 15.605 13.0273 15.5273V14.6484H19.707C19.7847 14.6484 19.8593 14.6176 19.9142 14.5626C19.9691 14.5077 20 14.4332 20 14.3555V12.9434C20.0011 12.5042 19.8459 12.0789 19.5622 11.7437C19.2785 11.4084 18.8849 11.1849 18.4516 11.1133ZM18.3547 11.6914C18.6424 11.7386 18.905 11.8838 19.098 12.1023C19.2911 12.3208 19.4027 12.5993 19.4141 12.8906H13.0273V8.29804C13.6436 9.19089 14.4325 9.95118 15.3475 10.534C16.2625 11.1168 17.285 11.5104 18.3547 11.6914ZM1.64532 11.6914C2.71497 11.5104 3.7375 11.1168 4.6525 10.534C5.5675 9.95118 6.35642 9.19089 6.97266 8.29804V12.8906H0.585943C0.597307 12.5993 0.708947 12.3208 0.901982 12.1023C1.09502 11.8838 1.3576 11.7386 1.64532 11.6914ZM0.585943 14.0625V13.4766H6.97266V14.0625H0.585943ZM10.8789 17.4094C10.878 17.7737 10.7991 18.1335 10.6475 18.4648C10.4959 18.796 10.2751 19.0909 10 19.3297C9.72488 19.0909 9.50409 18.796 9.35248 18.4648C9.20088 18.1335 9.12198 17.7737 9.1211 17.4094C9.1211 17.4004 9.1211 17.3914 9.1211 17.3828H10.8789C10.8781 17.3914 10.8789 17.4004 10.8789 17.4094ZM11.9863 16.7969H8.01368L8.20899 15.8203H11.791L11.9863 16.7969ZM12.4414 15.2344H7.5586V6.23828C7.55802 5.19382 7.77478 4.16067 8.19509 3.20452C8.6154 2.24836 9.23007 1.39012 10 0.684371C10.7699 1.39012 11.3846 2.24836 11.8049 3.20452C12.2252 4.16067 12.442 5.19382 12.4414 6.23828V15.2344ZM13.0273 14.0625V13.4766H19.4141V14.0625H13.0273Z" fill="#1E518D"/>
<path d="M9.42927 3.02382C8.87758 3.86714 8.50786 4.81626 8.34373 5.81054C8.33474 5.86517 8.34142 5.92123 8.36299 5.97222C8.38456 6.02321 8.42013 6.06705 8.46559 6.09865C8.51105 6.13025 8.56453 6.14832 8.61984 6.15077C8.67515 6.15322 8.73003 6.13995 8.7781 6.11249C9.15056 5.90088 9.5716 5.78962 9.99998 5.78962C10.4284 5.78962 10.8494 5.90088 11.2219 6.11249C11.2699 6.13995 11.3248 6.15322 11.3801 6.15077C11.4354 6.14832 11.4889 6.13025 11.5344 6.09865C11.5798 6.06705 11.6154 6.02321 11.637 5.97222C11.6585 5.92123 11.6652 5.86517 11.6562 5.81054C11.4921 4.81626 11.1224 3.86714 10.5707 3.02382C10.5083 2.92946 10.4236 2.85203 10.324 2.79846C10.2244 2.74488 10.1131 2.71684 9.99998 2.71684C9.88689 2.71684 9.77556 2.74488 9.67596 2.79846C9.57637 2.85203 9.49161 2.92946 9.42927 3.02382ZM10.0816 3.34648C10.4858 3.96361 10.7841 4.64394 10.964 5.35937C10.338 5.15208 9.66191 5.15208 9.03592 5.35937C9.2159 4.64394 9.51415 3.96361 9.91834 3.34648C9.92729 3.33302 9.93942 3.32199 9.95367 3.31435C9.96791 3.30672 9.98382 3.30273 9.99998 3.30273C10.0161 3.30273 10.032 3.30672 10.0463 3.31435C10.0605 3.32199 10.0727 3.33302 10.0816 3.34648Z" fill="#1E518D"/>
<path d="M10 8.98438C9.71523 8.98479 9.44223 9.0981 9.24087 9.29946C9.0395 9.50083 8.92619 9.77382 8.92578 10.0586V13.9648C8.92578 14.0425 8.95665 14.1171 9.01159 14.172C9.06653 14.2269 9.14105 14.2578 9.21875 14.2578H10.7812C10.859 14.2578 10.9335 14.2269 10.9884 14.172C11.0434 14.1171 11.0742 14.0425 11.0742 13.9648V10.0586C11.0738 9.77382 10.9605 9.50083 10.7591 9.29946C10.5578 9.0981 10.2848 8.98479 10 8.98438ZM10.4883 13.6719H9.51172V10.0586C9.51172 9.92909 9.56316 9.8049 9.65473 9.71333C9.7463 9.62176 9.8705 9.57031 10 9.57031C10.1295 9.57031 10.2537 9.62176 10.3453 9.71333C10.4368 9.8049 10.4883 9.92909 10.4883 10.0586V13.6719Z" fill="#1E518D"/>
<path d="M18.9258 19.0016C18.8481 19.0016 18.7736 19.0324 18.7186 19.0874C18.6637 19.1423 18.6328 19.2168 18.6328 19.2945V19.707C18.6328 19.7847 18.6637 19.8592 18.7186 19.9142C18.7736 19.9691 18.8481 20 18.9258 20C19.0035 20 19.078 19.9691 19.1329 19.9142C19.1879 19.8592 19.2188 19.7847 19.2188 19.707V19.2945C19.2188 19.2168 19.1879 19.1423 19.1329 19.0874C19.078 19.0324 19.0035 19.0016 18.9258 19.0016Z" fill="#1E518D"/>
<path d="M18.9258 15.5078C18.8481 15.5078 18.7736 15.5387 18.7186 15.5936C18.6637 15.6486 18.6328 15.7231 18.6328 15.8008V18.1445C18.6328 18.2222 18.6637 18.2967 18.7186 18.3517C18.7736 18.4066 18.8481 18.4375 18.9258 18.4375C19.0035 18.4375 19.078 18.4066 19.1329 18.3517C19.1879 18.2967 19.2188 18.2222 19.2188 18.1445V15.8008C19.2188 15.7231 19.1879 15.6486 19.1329 15.5936C19.078 15.5387 19.0035 15.5078 18.9258 15.5078Z" fill="#1E518D"/>
<path d="M16.9727 15.5078C16.895 15.5078 16.8204 15.5387 16.7655 15.5936C16.7106 15.6486 16.6797 15.7231 16.6797 15.8008V17.3633C16.6797 17.441 16.7106 17.5155 16.7655 17.5704C16.8204 17.6254 16.895 17.6562 16.9727 17.6562C17.0504 17.6562 17.1249 17.6254 17.1798 17.5704C17.2348 17.5155 17.2656 17.441 17.2656 17.3633V15.8008C17.2656 15.7231 17.2348 15.6486 17.1798 15.5936C17.1249 15.5387 17.0504 15.5078 16.9727 15.5078Z" fill="#1E518D"/>
<path d="M1.07422 19.0016C0.996519 19.0016 0.922001 19.0324 0.867059 19.0874C0.812116 19.1423 0.78125 19.2168 0.78125 19.2945V19.707C0.78125 19.7847 0.812116 19.8592 0.867059 19.9142C0.922001 19.9691 0.996519 20 1.07422 20C1.15192 20 1.22644 19.9691 1.28138 19.9142C1.33632 19.8592 1.36719 19.7847 1.36719 19.707V19.2945C1.36719 19.2561 1.35961 19.218 1.34489 19.1824C1.33016 19.1469 1.30858 19.1146 1.28138 19.0874C1.25417 19.0602 1.22188 19.0386 1.18633 19.0239C1.15079 19.0091 1.11269 19.0016 1.07422 19.0016Z" fill="#1E518D"/>
<path d="M1.07422 15.5078C0.996519 15.5078 0.922001 15.5387 0.867059 15.5936C0.812116 15.6486 0.78125 15.7231 0.78125 15.8008V18.1445C0.78125 18.2222 0.812116 18.2967 0.867059 18.3517C0.922001 18.4066 0.996519 18.4375 1.07422 18.4375C1.15192 18.4375 1.22644 18.4066 1.28138 18.3517C1.33632 18.2967 1.36719 18.2222 1.36719 18.1445V15.8008C1.36719 15.7623 1.35961 15.7242 1.34489 15.6887C1.33016 15.6531 1.30858 15.6208 1.28138 15.5936C1.25417 15.5664 1.22188 15.5448 1.18633 15.5301C1.15079 15.5154 1.11269 15.5078 1.07422 15.5078Z" fill="#1E518D"/>
<path d="M3.02734 15.5078C2.94964 15.5078 2.87513 15.5387 2.82018 15.5936C2.76524 15.6486 2.73438 15.7231 2.73438 15.8008V17.3633C2.73438 17.441 2.76524 17.5155 2.82018 17.5704C2.87513 17.6254 2.94964 17.6562 3.02734 17.6562C3.10504 17.6562 3.17956 17.6254 3.2345 17.5704C3.28945 17.5155 3.32031 17.441 3.32031 17.3633V15.8008C3.32031 15.7231 3.28945 15.6486 3.2345 15.5936C3.17956 15.5387 3.10504 15.5078 3.02734 15.5078Z" fill="#1E518D"/>
</g>
<defs>
<clipPath id="clip0_326_3219">
<rect width="20" height="20" fill="white"/>
</clipPath>
</defs>
</svg>
